<svg version="1.1" id="Layer_1" xmlns="http://www.w3.org/2000/svg" xmlns:xlink="http://www.w3.org/1999/xlink" x="0px" y="0px"
	 width="100%" viewBox="0 0 437 435" enable-background="new 0 0 437 435" xml:space="preserve">
<path fill="#3D6131" opacity="1.000000" stroke="none" 
	d="
M2.000000,1.000000 
	C147.285721,1.000000 292.571442,1.000000 437.928589,1.000000 
	C437.928589,145.904846 437.928589,290.809723 437.928589,436.000000 
	C292.976044,436.000000 147.951904,436.000000 2.463812,435.536133 
	C1.999904,290.381500 1.999952,145.690750 2.000000,1.000000 
M337.002441,105.997742 
	C337.002441,105.997742 337.006653,105.982880 336.796112,105.536682 
	C336.592255,105.260841 336.325043,105.077209 335.998566,105.001961 
	C335.998566,105.001961 336.014984,105.004311 335.776276,104.584480 
	C335.573364,104.325363 335.320953,104.130264 334.746368,103.383209 
	C332.534088,100.927025 330.321777,98.470833 327.967743,95.298004 
	C326.604858,94.543945 325.241974,93.789886 323.418488,92.801819 
	C322.970215,92.546242 322.521912,92.290665 321.731628,91.438583 
	C320.121552,90.670250 318.511505,89.901909 316.327606,89.082306 
	C315.945221,89.046707 315.562805,89.011108 314.700989,88.447571 
	C311.776642,87.652267 308.852325,86.856956 305.452393,86.048538 
	C305.452393,86.048538 304.976990,86.029289 304.804993,85.737045 
	C304.554321,85.833565 304.303650,85.930077 303.168549,86.024094 
	C300.213837,85.701714 297.090576,84.604805 294.336487,85.204247 
	C286.518250,86.905937 278.773590,89.063583 271.163300,91.543007 
	C268.257141,92.489822 267.174133,92.208168 265.958679,89.384895 
	C263.571198,83.839088 260.702087,78.500626 258.039917,72.356110 
	C257.345581,71.587288 256.651245,70.818466 255.997025,70.000969 
	C255.997025,70.000969 255.949051,70.042633 255.884506,69.352875 
	C254.241608,67.920967 252.598709,66.489067 250.989731,65.033531 
	C250.989731,65.033531 250.958572,65.042007 250.630997,64.557877 
	C250.095215,64.364037 249.559418,64.170197 249.003754,63.999554 
	C249.003754,63.999554 249.015335,63.974709 248.806808,63.505211 
	C248.542084,63.290585 248.277359,63.075958 247.758881,62.519329 
	C247.561432,62.309776 247.331589,62.145550 246.742172,61.447189 
	C245.796600,60.971985 244.851013,60.496784 243.510590,59.996212 
	C243.510590,59.996212 243.115341,59.978115 242.822098,59.547340 
	C242.530243,59.366020 242.238388,59.184700 241.315552,58.699112 
	C227.062759,51.022655 212.912567,51.231647 198.531601,58.648678 
	C189.051041,63.538315 182.069412,70.668976 176.522720,80.184189 
	C176.360229,80.510262 176.197739,80.836334 176.000778,81.735809 
	C175.978943,82.118134 175.957123,82.500458 175.275024,83.092010 
	C174.860001,84.096619 174.444977,85.101234 173.998260,86.467972 
	C173.998260,86.467972 173.968796,86.830284 173.453827,87.293503 
	C171.962509,88.877579 170.471176,90.461647 168.336838,91.734276 
	C162.907730,89.821991 157.478638,87.909706 151.590942,85.493813 
	C150.710617,85.356239 149.830292,85.218658 148.050217,85.070137 
	C145.046234,85.081207 142.042267,85.092278 138.200256,85.031845 
	C134.138870,86.028961 130.077484,87.026077 125.999939,88.000610 
	C125.999939,88.000610 126.013969,88.026009 125.419144,88.055466 
	C124.946632,88.373016 124.474113,88.690575 124.000000,89.000000 
	C124.000000,89.000000 124.006554,89.004951 123.344215,89.003952 
	C122.575401,89.334099 121.806595,89.664246 120.405174,90.270241 
	C113.000633,94.419357 106.410118,99.471169 101.288216,107.103035 
	C99.853897,110.402657 98.419579,113.702286 97.002312,117.001221 
	C97.002312,117.001221 96.994270,116.986031 96.473572,117.477119 
	C95.660393,120.689972 94.847214,123.902817 94.024994,127.722328 
	C94.015823,128.126709 94.006653,128.531097 93.486763,129.387619 
	C93.350952,130.266830 93.215141,131.146057 93.076286,132.673691 
	C93.075226,133.105972 93.074165,133.538269 92.490395,134.579224 
	C92.303329,139.389954 92.116264,144.200668 91.500237,149.049515 
	C91.500237,149.049515 91.070068,149.069763 90.363708,149.026169 
	C89.214424,149.662048 88.065132,150.297943 86.467842,150.944626 
	C86.467842,150.944626 86.020729,150.974808 85.290161,150.973282 
	C84.196121,151.319199 83.102081,151.665115 82.000000,152.000000 
	C82.000000,152.000000 82.007378,152.010162 81.535271,152.210556 
	C81.309303,152.464645 81.083336,152.718735 80.488319,152.990479 
	C80.488319,152.990479 80.119667,153.014954 79.610367,153.203598 
	C79.362831,153.463013 79.115288,153.722443 78.497337,153.994492 
	C78.497337,153.994492 78.127464,154.017990 77.413528,154.063263 
	C76.249397,155.033081 75.085274,156.002899 73.342796,157.301727 
	C69.527405,160.943527 65.333527,164.269730 61.977383,168.294464 
	C55.495098,176.068069 54.370125,185.798508 54.213837,195.362808 
	C54.128563,200.581467 56.150909,205.834579 57.148129,211.921097 
	C57.581314,213.911087 58.014503,215.901077 58.391647,218.679520 
	C58.309288,219.724991 58.226925,220.770462 57.408840,221.918289 
	C54.936565,224.592972 52.464291,227.267670 49.522633,230.319748 
	C49.342224,230.880020 49.161812,231.440292 49.002087,232.002853 
	C49.002087,232.002853 48.997948,231.982559 48.557114,232.228363 
	C48.378361,232.509155 48.199608,232.789948 47.981941,233.680420 
	C47.959507,234.087067 47.937073,234.493713 47.507778,235.176788 
	C47.253056,235.398315 47.076256,235.670456 47.002983,235.997284 
	C47.002983,235.997284 46.984394,235.977707 46.508129,236.337158 
	C46.339222,236.896912 46.170315,237.456665 46.000397,238.000641 
	C46.000397,238.000641 46.014538,237.993607 45.471798,238.444199 
	C44.986217,241.307922 44.500637,244.171646 44.010555,247.902359 
	C44.013287,249.925537 44.016022,251.948730 43.768608,254.531052 
	C44.156815,255.396759 44.545017,256.262482 44.942390,257.711548 
	C44.945755,258.100525 44.949123,258.489471 44.538353,259.325806 
	C45.019814,260.588226 45.501274,261.850616 45.996643,263.524109 
	C45.996643,263.524109 46.013954,263.935089 45.998489,264.716980 
	C47.001144,267.148773 48.003799,269.580536 49.001034,271.998901 
	C49.001034,271.998901 48.990150,271.989471 49.208778,272.429352 
	C49.405380,272.702179 49.657970,272.905457 50.075626,273.745422 
	C52.458900,277.190613 54.842175,280.635773 57.156139,284.744019 
	C57.616058,285.591217 58.075974,286.438416 58.562561,288.184082 
	C58.562561,292.852814 58.562561,297.521545 58.562561,302.782806 
	C61.535366,301.911194 63.683681,301.281311 65.953583,301.546478 
	C66.103172,303.564301 66.252769,305.582123 66.464630,308.439850 
	C70.521027,306.719360 73.757828,305.346466 77.501373,304.170166 
	C77.983536,304.410980 78.465706,304.651825 79.550117,305.218964 
	C90.331169,312.481934 101.112221,319.744873 112.171196,327.434875 
	C112.452721,327.616394 112.734238,327.797943 113.000610,327.998779 
	C113.000610,327.998779 113.017296,327.975769 113.436905,328.486633 
	C114.283539,328.689178 115.130173,328.891724 116.221115,329.463623 
	C116.421730,329.687012 116.659508,329.859009 117.289238,330.588440 
	C118.554443,331.068115 119.819649,331.547791 121.458344,332.252747 
	C121.694229,332.431061 121.882751,332.650116 122.331810,333.533142 
	C123.553688,334.025543 124.775566,334.517914 126.000305,335.000000 
	C126.000305,335.000000 125.991859,335.005768 126.337975,335.487610 
	C126.888641,335.681580 127.439316,335.875549 128.453720,336.553314 
	C130.299133,337.365936 132.144562,338.178558 134.240570,339.420380 
	C134.459305,339.686829 134.736221,339.860596 135.498047,339.968903 
	C135.498047,339.968903 135.924332,340.002899 136.111481,340.691833 
	C137.731049,343.138977 139.350616,345.586121 140.965942,348.898315 
	C140.964569,350.916321 140.963196,352.934326 140.467590,355.506500 
	C141.311279,358.992432 142.154968,362.478333 143.269714,366.597382 
	C147.207809,370.743317 150.433411,376.209900 155.216156,378.790222 
	C170.213196,386.881195 185.855209,382.839752 201.210831,379.136780 
	C211.078339,376.757233 219.920685,372.307312 231.201889,377.063477 
	C246.532990,383.527069 263.243622,385.497345 280.677582,380.985931 
	C282.108765,380.321350 283.539948,379.656738 284.992401,378.989685 
	C284.992401,378.989685 284.996460,378.968750 285.652161,378.923035 
	C286.765930,377.949738 287.879700,376.976410 289.000000,376.000000 
	C289.000000,376.000000 289.004517,375.993835 289.464844,375.777893 
	C289.677673,375.516357 289.890472,375.254822 290.567017,374.716064 
	C291.046692,374.186646 291.526367,373.657227 292.497345,372.721527 
	C292.679382,372.126221 292.861420,371.530914 293.271942,370.564117 
	C293.453064,370.329773 293.676117,370.146362 294.561615,369.695648 
	C295.036133,368.456512 295.510681,367.217407 296.038849,365.400757 
	C296.328369,364.921478 296.617889,364.442200 297.260223,363.816071 
	C297.330292,363.710938 297.483887,363.562378 297.455750,363.508331 
	C297.344421,363.294281 297.176208,363.109802 297.060028,362.310547 
	C297.079407,361.907959 297.098785,361.505341 297.859741,360.822266 
	C297.924530,355.514923 297.989288,350.207581 298.057953,344.309204 
	C298.056763,343.915192 298.055603,343.521179 298.647400,343.018036 
	C299.122192,342.672546 299.596985,342.327057 300.682037,341.679443 
	C305.352264,339.163544 310.183746,336.903900 314.663300,334.084961 
	C329.618713,324.673645 344.448090,315.061981 359.541748,305.458466 
	C359.541748,305.458466 359.734314,305.022308 360.409637,304.999268 
	C360.634705,304.989868 360.859741,304.980469 361.590118,305.505249 
	C367.439423,306.346710 373.276489,307.770142 379.140869,307.893127 
	C387.927826,308.077454 393.692108,302.083099 393.936462,293.242157 
	C394.142426,285.792542 394.070740,278.332642 393.971802,270.879303 
	C393.950806,269.297211 393.279480,267.723724 393.229950,265.420227 
	C394.082062,262.270599 395.589783,259.128662 395.626770,255.969482 
	C395.677460,251.641144 394.611572,247.299744 393.976410,242.097977 
	C393.943146,240.067215 393.909882,238.036469 393.963318,235.072983 
	C393.974609,231.074371 394.364410,227.032959 393.918182,223.086075 
	C392.997711,214.943787 391.232269,207.014114 385.067719,200.227066 
	C385.496552,189.197388 384.391663,178.516556 377.935547,168.395889 
	C377.277313,167.608582 376.619080,166.821274 375.991241,166.010391 
	C375.991241,166.010391 375.955170,166.040070 375.871918,165.409058 
	C375.259460,164.939667 374.647003,164.470261 374.020844,163.979965 
	C374.020844,163.979965 374.000275,163.965744 373.956085,163.276993 
	C372.591248,162.184830 371.226440,161.092667 369.337372,159.910706 
	C368.911346,159.617584 368.485291,159.324463 367.947571,158.387299 
	C367.294495,157.922363 366.641449,157.457428 365.998779,157.001831 
	C365.998779,157.001831 366.011200,157.008591 365.665924,156.521011 
	C365.112823,156.337067 364.559692,156.153107 364.005951,156.005661 
	C364.005951,156.005661 364.032318,155.980042 363.882935,155.298294 
	C362.256683,154.528717 360.630402,153.759155 359.000000,153.000000 
	C359.000000,153.000000 359.007874,152.992752 358.668518,152.487518 
	C358.094757,152.326950 357.520996,152.166382 356.190796,151.902481 
	C354.610077,151.493042 353.046112,150.995773 351.445496,150.690842 
	C346.876892,149.820572 346.132324,146.459564 346.087494,142.626785 
	C346.046234,139.099594 346.040497,135.571976 346.500427,131.510849 
	C345.575226,125.705704 345.888153,119.497925 341.078613,114.327934 
	C341.054443,113.916862 341.030273,113.505783 341.265045,112.749641 
	C340.859314,112.447273 340.453552,112.144905 340.034576,111.472816 
	C340.034576,111.472816 340.005524,111.103989 339.980988,110.483727 
	C339.659363,109.994293 339.337769,109.504860 339.006470,108.996414 
	C339.006470,108.996414 338.994110,108.979095 338.962769,108.391182 
	C338.636505,107.930511 338.310242,107.469849 337.999390,106.999390 
	C337.999390,106.999390 337.989288,107.012131 337.785248,106.568817 
	C337.598999,106.283867 337.342957,106.092171 337.002441,105.997742 
z"/>
<path fill="#C1CDBF" opacity="1.000000" stroke="none" 
	d="
M1.500000,1.000000 
	C1.999952,145.690750 1.999904,290.381500 1.999931,435.536133 
	C1.666673,434.668579 1.043504,433.337494 1.041986,432.005676 
	C0.991316,387.556702 1.000000,343.107666 1.000000,298.658630 
	C1.000000,199.439087 1.000000,100.219543 1.500000,1.000000 
z"/>
<path fill="#48345F" opacity="1.000000" stroke="none" 
	d="
M133.989990,338.991150 
	C132.144562,338.178558 130.299133,337.365936 128.057129,336.058411 
	C127.104301,335.377625 126.548080,335.191681 125.991859,335.005768 
	C125.991859,335.005768 126.000305,335.000000 125.841156,334.701630 
	C124.462639,333.905487 123.243271,333.407745 122.023911,332.909973 
	C121.882751,332.650116 121.694229,332.431061 121.052521,331.880615 
	C119.409294,330.998901 118.171875,330.489258 116.934464,329.979645 
	C116.659508,329.859009 116.421730,329.687012 115.895401,329.012024 
	C114.718887,328.365540 113.868088,328.170654 113.017296,327.975769 
	C113.017296,327.975769 113.000610,327.998779 112.886337,327.761932 
	C112.479141,327.352661 112.186211,327.180237 111.893280,327.007812 
	C101.112221,319.744873 90.331169,312.481934 79.421936,304.767944 
	C81.471321,303.191040 83.648895,302.065186 86.138084,300.963379 
	C86.656967,300.997833 86.864243,301.008209 87.140678,301.350281 
	C88.118660,302.330017 89.022141,302.985626 89.937042,303.624878 
	C118.744347,323.753754 149.850800,339.505524 182.561600,352.181793 
	C183.745590,352.640625 185.199081,352.404083 186.526978,352.491577 
	C178.601715,345.324921 170.133865,339.696167 162.409546,333.185303 
	C146.399490,319.690399 130.784531,305.726776 115.004059,291.700623 
	C114.998497,291.275208 114.995979,291.105042 115.304626,290.822266 
	C117.139389,289.806610 118.663002,288.903595 120.440399,288.000153 
	C121.031944,288.000549 121.369698,288.001373 121.969482,288.228485 
	C143.449417,308.532318 165.578629,327.453094 190.577682,342.844330 
	C189.125397,339.290253 187.091309,336.357086 185.069214,333.415710 
	C172.917953,315.739960 160.739197,298.082916 148.680084,280.344482 
	C147.761902,278.993866 147.698105,277.062408 147.628082,275.330566 
	C149.326874,275.132111 150.634766,275.003998 151.962662,275.327026 
	C152.030045,283.755768 152.359558,284.094025 158.359985,282.033020 
	C158.881546,282.091125 159.089661,282.118774 159.344055,282.473999 
	C172.584229,301.369690 185.688736,320.002380 199.030731,338.463470 
	C202.664230,343.491058 207.012848,348.001801 211.033264,352.749756 
	C211.434204,352.527893 211.835144,352.306030 212.236084,352.084167 
	C211.187332,346.063812 210.151596,340.041168 209.087463,334.023529 
	C205.727173,315.021149 202.356247,296.020630 198.996613,276.752075 
	C199.008194,276.306488 199.012589,276.128265 199.405609,275.982727 
	C201.722549,275.591187 203.650879,275.166931 205.769379,274.793396 
	C205.959549,274.844086 206.341476,274.939331 206.492950,275.345337 
	C210.674072,298.757568 214.703720,321.763794 218.733368,344.769989 
	C219.415527,344.808380 220.097687,344.846771 220.779846,344.885162 
	C225.274704,319.343933 229.769562,293.802673 234.649384,268.217896 
	C236.047058,268.274231 237.059799,268.374115 238.069412,268.886169 
	C238.711075,271.863281 239.355835,274.428192 240.012802,277.280823 
	C240.036789,277.760162 240.048599,277.951813 240.037476,278.550781 
	C235.766785,303.439636 231.519012,327.921143 227.026520,353.813080 
	C228.794647,352.134216 229.576843,351.570129 230.134766,350.835693 
	C244.419205,332.031616 258.758698,313.268311 272.879120,294.341553 
	C275.709137,290.548218 277.689331,286.120819 280.370850,281.991974 
	C281.092987,282.004730 281.505737,282.011292 282.384216,282.031982 
	C285.029022,282.133942 287.208069,282.221832 289.320892,282.656586 
	C275.705414,302.922363 262.156158,322.841248 248.068405,343.551849 
	C250.313477,342.443176 252.069839,341.823639 253.553391,340.806244 
	C278.319214,323.822449 301.180450,304.548615 322.389893,283.306091 
	C323.411957,282.282440 324.143433,280.968628 325.351013,279.864197 
	C326.787476,281.278290 327.883148,282.618103 329.106079,284.226868 
	C329.476501,285.425842 329.719666,286.355927 329.659271,287.482513 
	C329.223541,287.779999 329.078644,287.868011 328.961029,287.983765 
	C305.453613,311.122620 280.519867,332.527985 252.890427,350.667755 
	C252.186691,351.129761 251.763458,352.018982 251.209412,352.708923 
	C253.354446,353.249054 254.968781,352.824066 256.524384,352.242065 
	C290.013153,339.713043 321.404236,323.164124 351.134460,302.878540 
	C351.836487,302.543915 352.287384,302.287262 353.000244,302.278503 
	C355.277954,303.339539 357.293671,304.152740 359.282349,305.107117 
	C359.255249,305.248291 359.325745,305.527039 359.325745,305.527039 
	C344.448090,315.061981 329.618713,324.673645 314.663300,334.084961 
	C310.183746,336.903900 305.352264,339.163544 300.064636,341.855499 
	C298.982971,342.396759 298.518707,342.761963 298.054443,343.127197 
	C298.055603,343.521179 298.056763,343.915192 298.033600,345.079712 
	C297.712219,350.934387 297.415192,356.018585 297.118164,361.102753 
	C297.098785,361.505341 297.079407,361.907959 297.013123,362.874969 
	C296.946594,363.613892 296.927002,363.788391 296.907379,363.962891 
	C296.617889,364.442200 296.328369,364.921478 295.762451,365.902161 
	C294.971039,367.607025 294.456055,368.810455 293.941071,370.013885 
	C293.676117,370.146362 293.453064,370.329773 292.909607,370.950897 
	C292.366852,371.934387 292.186462,372.531128 292.006073,373.127838 
	C291.526367,373.657227 291.046692,374.186646 290.093689,374.951294 
	C289.415039,375.455597 289.209778,375.724731 289.004517,375.993835 
	C289.004517,375.993835 289.000000,376.000000 288.653870,376.033875 
	C287.203949,377.034760 286.100189,378.001740 284.996460,378.968750 
	C284.996460,378.968750 284.992401,378.989685 284.616333,378.976379 
	C282.814301,379.636749 281.388367,380.310425 279.962433,380.984131 
	C263.243622,385.497345 246.532990,383.527069 231.201889,377.063477 
	C219.920685,372.307312 211.078339,376.757233 201.210831,379.136780 
	C185.855209,382.839752 170.213196,386.881195 155.216156,378.790222 
	C150.433411,376.209900 147.207809,370.743317 143.138672,365.871674 
	C142.325699,361.748077 141.643753,358.350220 140.961807,354.952332 
	C140.963196,352.934326 140.964569,350.916321 141.034149,348.092590 
	C143.491074,341.933807 139.713531,340.964203 135.924332,340.002899 
	C135.924332,340.002899 135.498047,339.968903 135.148315,339.750946 
	C134.579239,339.277496 134.309723,339.096863 133.989990,338.991150 
M201.560562,366.865906 
	C183.892990,360.419525 166.225403,353.973175 148.542923,347.521393 
	C146.023590,363.120941 154.298157,373.862946 169.771286,374.931763 
	C173.900864,375.217041 178.149719,375.400665 182.207230,374.762573 
	C190.403503,373.473541 198.506180,371.589325 206.647446,369.950592 
	C206.580246,369.459320 206.513046,368.968048 206.445847,368.476776 
	C205.067932,367.998016 203.690018,367.519287 201.560562,366.865906 
M279.768005,372.537872 
	C288.640106,369.480103 294.076019,356.161346 290.332886,347.519501 
	C271.467041,354.654144 252.614731,361.783691 232.541016,369.375153 
	C248.480698,373.843445 263.359070,377.876343 279.768005,372.537872 
z"/>
<path fill="#FDFDFD" opacity="1.000000" stroke="none" 
	d="
M58.144562,221.815933 
	C58.226925,220.770462 58.309288,219.724991 58.638649,217.963013 
	C58.806343,215.077606 58.727036,212.908722 58.627506,210.288208 
	C58.616119,204.215622 58.945068,198.571869 58.547039,192.979843 
	C58.117672,186.947617 59.020851,181.893524 65.410782,179.013306 
	C75.487404,173.159775 85.216194,167.347870 95.312607,161.442780 
	C97.673813,160.327255 99.667404,159.304916 102.021301,158.234894 
	C111.164558,154.814621 119.556450,154.362823 126.876373,161.899811 
	C134.048569,181.382950 129.462296,205.154709 116.952866,215.001129 
	C120.601173,216.053680 124.264923,217.110703 127.953140,218.490906 
	C128.664505,219.871155 129.351395,220.928207 130.096924,222.380096 
	C130.848343,228.203049 131.541122,233.631149 132.161423,239.501282 
	C132.072495,242.633987 132.056030,245.324707 131.872559,248.250824 
	C131.743454,249.041122 131.781357,249.595993 131.695129,250.512405 
	C131.486252,251.886749 131.401535,252.899567 131.086121,254.228790 
	C128.488419,264.844604 122.583694,272.938110 114.670090,280.058350 
	C112.531403,281.369385 110.717514,282.603577 108.541756,283.869873 
	C105.071564,285.373383 102.025558,286.999420 98.841454,288.282776 
	C92.940186,290.661285 86.958199,292.839539 80.642685,295.096130 
	C77.436180,296.193481 74.596817,297.295868 71.392372,298.408997 
	C69.295517,299.163635 67.563759,299.907532 65.831993,300.651428 
	C63.683681,301.281311 61.535366,301.911194 58.562561,302.782806 
	C58.562561,297.521545 58.562561,292.852814 58.722061,287.311401 
	C58.806049,285.542969 58.730537,284.647186 58.633713,283.323059 
	C58.407043,279.278107 58.201683,275.661530 58.229774,271.704407 
	C58.564152,263.295105 58.768749,255.225830 58.728195,247.157761 
	C58.702747,242.095703 58.309025,237.035492 58.162071,231.524033 
	C58.210602,227.987732 58.177582,224.901825 58.144562,221.815933 
M91.702232,266.940002 
	C93.615601,265.985046 95.528976,265.030090 98.097000,263.994232 
	C104.780396,257.764526 104.922295,250.080795 103.187859,241.167908 
	C102.816734,236.536987 99.972801,235.434601 95.934235,236.151215 
	C87.774300,237.599152 86.171021,239.514496 86.194023,247.737244 
	C86.196739,248.707428 86.369385,249.677139 86.283752,251.607025 
	C86.405151,255.388443 86.526558,259.169861 86.281281,263.564514 
	C86.281281,265.197784 86.281281,266.831055 86.281281,269.294678 
	C88.515663,268.193573 89.753731,267.583466 91.702232,266.940002 
M95.599907,212.806625 
	C97.584656,210.491379 100.657455,208.447464 101.317268,205.801788 
	C102.520958,200.975281 102.294907,195.792206 102.639381,190.074921 
	C101.041199,188.551605 98.922737,185.453979 97.935799,185.780167 
	C93.875076,187.122177 87.293678,189.007462 86.844315,191.596375 
	C85.414574,199.833618 86.314880,208.475281 86.314880,218.122467 
	C89.929703,215.978577 92.431587,214.494751 95.599907,212.806625 
z"/>
<path fill="#47345D" opacity="1.000000" stroke="none" 
	d="
M101.660988,158.282578 
	C99.667404,159.304916 97.673813,160.327255 95.238541,161.057739 
	C93.560226,159.660782 92.012253,157.391510 91.134010,157.626404 
	C79.263779,160.801025 69.787590,167.095383 65.062935,179.054947 
	C59.020851,181.893524 58.117672,186.947617 58.547039,192.979843 
	C58.945068,198.571869 58.616119,204.215622 58.383369,210.316467 
	C57.868561,210.960754 57.556324,211.052689 57.222748,211.072144 
	C56.150909,205.834579 54.128563,200.581467 54.213837,195.362808 
	C54.370125,185.798508 55.495098,176.068069 61.977383,168.294464 
	C65.333527,164.269730 69.527405,160.943527 73.969742,157.113220 
	C75.773613,155.955795 76.950539,154.986893 78.127464,154.017990 
	C78.127464,154.017990 78.497337,153.994492 78.937973,153.893250 
	C79.625633,153.532974 79.872650,153.273972 80.119667,153.014954 
	C80.119667,153.014954 80.488319,152.990479 80.920609,152.893677 
	C81.571060,152.534653 81.789215,152.272400 82.007378,152.010162 
	C82.007378,152.010162 82.000000,152.000000 82.367401,152.011505 
	C83.830116,151.673615 84.925423,151.324219 86.020729,150.974823 
	C86.020729,150.974808 86.467842,150.944626 87.045959,150.952515 
	C88.772736,150.330200 89.921402,149.699982 91.070068,149.069763 
	C91.070068,149.069763 91.500237,149.049515 92.063416,148.960205 
	C92.775436,143.904114 92.924271,138.937332 93.073112,133.970551 
	C93.074165,133.538269 93.075226,133.105972 93.312149,132.111877 
	C93.697838,130.678543 93.847664,129.807022 93.997482,128.935486 
	C94.006653,128.531097 94.015823,128.126709 94.285271,127.154144 
	C95.361786,123.385986 96.178032,120.186012 96.994270,116.986031 
	C96.994270,116.986031 97.002312,117.001221 97.263901,116.792023 
	C99.004860,113.355385 100.484245,110.127945 101.963623,106.900505 
	C106.410118,99.471169 113.000633,94.419357 121.052284,90.131592 
	C122.468445,89.663605 123.237503,89.334282 124.006554,89.004951 
	C124.006554,89.004951 124.000000,89.000000 124.297890,88.988434 
	C125.068512,88.659920 125.541245,88.342964 126.013969,88.026016 
	C126.013969,88.026009 125.999939,88.000610 126.433334,88.020210 
	C130.923904,87.060989 134.981094,86.082169 139.038284,85.103348 
	C142.042267,85.092278 145.046234,85.081207 148.739777,85.310204 
	C150.302734,85.699326 151.176132,85.848373 152.049530,85.997421 
	C157.478638,87.909706 162.907730,89.821991 168.830505,92.169014 
	C170.510895,92.378090 172.364899,92.527687 172.746429,91.849228 
	C173.559097,90.404121 173.607300,88.529114 173.968796,86.830284 
	C173.968796,86.830284 173.998260,86.467972 174.290131,86.105415 
	C175.033096,84.789505 175.484192,83.836143 175.935287,82.882782 
	C175.957123,82.500458 175.978943,82.118134 176.237793,81.282578 
	C176.643204,80.509308 176.811615,80.189262 176.980042,79.869217 
	C182.069412,70.668976 189.051041,63.538315 198.531601,58.648678 
	C212.912567,51.231647 227.062759,51.022655 241.774139,59.070198 
	C242.526917,59.620228 242.821121,59.799175 243.115341,59.978119 
	C243.115341,59.978115 243.510590,59.996212 243.881165,60.289711 
	C245.190948,61.064354 246.130157,61.545498 247.069366,62.026646 
	C247.331589,62.145550 247.561432,62.309776 247.980988,62.935188 
	C248.473831,63.558933 248.744583,63.766823 249.015335,63.974709 
	C249.015335,63.974709 249.003754,63.999554 249.179092,64.226845 
	C249.889145,64.650085 250.423859,64.846046 250.958572,65.042007 
	C250.958572,65.042007 250.989731,65.033531 251.030899,65.378784 
	C252.697723,67.163574 254.323380,68.603104 255.949051,70.042633 
	C255.949051,70.042633 255.997025,70.000969 256.023895,70.341621 
	C256.711273,71.480301 257.371796,72.278328 258.032288,73.076370 
	C260.702087,78.500626 263.571198,83.839088 265.958679,89.384895 
	C267.174133,92.208168 268.257141,92.489822 271.163300,91.543007 
	C278.773590,89.063583 286.518250,86.905937 294.336487,85.204247 
	C297.090576,84.604805 300.213837,85.701714 303.841492,86.025566 
	C304.514435,86.027039 304.976990,86.029289 304.976990,86.029289 
	C304.976990,86.029289 305.452393,86.048538 305.952179,86.301956 
	C309.361450,87.362091 312.270935,88.168800 315.180420,88.975510 
	C315.562805,89.011108 315.945221,89.046707 316.719666,89.433823 
	C318.765686,90.535255 320.419678,91.285172 322.073639,92.035088 
	C322.521912,92.290665 322.970215,92.546242 323.826813,93.205467 
	C325.526581,94.410957 326.818024,95.212799 328.109467,96.014648 
	C330.321777,98.470833 332.534088,100.927025 334.992065,103.908813 
	C335.437805,104.704895 335.696869,104.894852 336.014984,105.004311 
	C336.014984,105.004311 335.998566,105.001961 336.112701,105.209068 
	C336.425629,105.689232 336.685577,105.878128 337.006653,105.982880 
	C337.006653,105.982880 337.002441,105.997742 337.111084,106.217255 
	C337.411499,106.715187 337.667999,106.906967 337.989288,107.012131 
	C337.989288,107.012131 337.999390,106.999390 338.011658,107.298599 
	C338.347321,108.058228 338.670715,108.518661 338.994110,108.979095 
	C338.994110,108.979095 339.006470,108.996414 339.021393,109.309082 
	C339.359375,110.115829 339.682434,110.609917 340.005524,111.103989 
	C340.005524,111.103989 340.034576,111.472816 340.129761,111.916008 
	C340.485321,112.604370 340.745728,112.849541 341.006104,113.094711 
	C341.030273,113.505783 341.054443,113.916862 341.111969,115.012260 
	C342.769897,121.145912 344.394470,126.595238 346.019073,132.044556 
	C346.040497,135.571976 346.046234,139.099594 346.087494,142.626785 
	C346.132324,146.459564 346.876892,149.820572 351.445496,150.690842 
	C353.046112,150.995773 354.610077,151.493042 356.761841,152.184448 
	C357.891205,152.641846 358.449524,152.817291 359.007874,152.992752 
	C359.007874,152.992752 359.000000,153.000000 359.156158,153.292847 
	C360.885651,154.383804 362.458984,155.181915 364.032318,155.980042 
	C364.032318,155.980042 364.005951,156.005661 364.179138,156.230316 
	C364.905273,156.639511 365.458221,156.824051 366.011200,157.008591 
	C366.011200,157.008591 365.998779,157.001831 366.118561,157.268860 
	C366.845306,158.034378 367.452301,158.532867 368.059265,159.031342 
	C368.485291,159.324463 368.911346,159.617584 369.679382,160.284958 
	C371.347656,161.761383 372.673981,162.863571 374.000275,163.965744 
	C374.000275,163.965744 374.020844,163.979965 374.060883,164.302948 
	C374.718994,165.097305 375.337097,165.568695 375.955170,166.040070 
	C375.955170,166.040070 375.991241,166.010391 376.020874,166.336914 
	C376.691986,167.456940 377.333435,168.250443 377.974915,169.043945 
	C384.391663,178.516556 385.496552,189.197388 384.781219,200.609467 
	C384.324890,200.986771 384.155090,200.981674 383.724487,200.742798 
	C381.030640,195.328949 378.597595,190.148880 376.232971,184.572235 
	C372.723572,169.684662 362.752045,161.766693 349.084320,157.567749 
	C346.473511,156.765640 345.358307,157.729980 344.663635,160.142487 
	C342.168152,159.100861 340.035553,158.101700 338.042236,156.694763 
	C339.918640,145.639404 339.633606,135.072037 337.071991,124.565239 
	C329.235352,92.422386 293.272064,86.984306 273.626617,99.265640 
	C271.837433,100.384163 269.729889,102.380264 269.420502,104.242966 
	C267.952545,113.080612 267.057159,122.013359 265.567871,130.949402 
	C263.137451,130.606171 261.096954,130.225769 259.011902,129.418823 
	C259.842712,122.744499 260.825592,116.509560 261.574127,110.246613 
	C264.267273,87.713226 247.665756,65.102425 226.118073,61.852844 
	C203.678436,58.468754 183.326874,73.681992 178.730957,97.071411 
	C176.571823,108.059540 179.282928,118.563599 180.991211,129.402283 
	C178.455582,130.099915 176.215637,130.564453 173.862427,130.652527 
	C172.562790,121.895470 171.482193,113.497429 170.103836,105.148529 
	C169.816574,103.408508 168.838516,101.299164 167.485214,100.291534 
	C149.315475,86.762718 118.625511,92.999489 107.450401,112.703506 
	C99.351936,126.982796 98.833588,142.482956 101.660988,158.282578 
z"/>
<path fill="#1A2616" opacity="1.000000" stroke="none" 
	d="
M392.907776,266.146271 
	C393.279480,267.723724 393.950806,269.297211 393.971802,270.879303 
	C394.070740,278.332642 394.142426,285.792542 393.936462,293.242157 
	C393.692108,302.083099 387.927826,308.077454 379.140869,307.893127 
	C373.276489,307.770142 367.439423,306.346710 361.584534,305.033142 
	C364.058258,302.147797 366.537537,299.734619 369.401245,297.195343 
	C380.083710,295.724548 384.399872,291.617981 385.655579,281.929321 
	C385.866730,280.300140 385.973816,278.657471 386.458801,276.937714 
	C388.522888,273.270660 390.257080,269.686920 392.220703,266.107727 
	C392.450104,266.112274 392.907745,266.146271 392.907776,266.146271 
z"/>
<path fill="#46345C" opacity="1.000000" stroke="none" 
	d="
M57.996323,272.044952 
	C58.201683,275.661530 58.407043,279.278107 58.388741,283.349609 
	C57.872932,283.968292 57.559719,284.060425 57.225445,284.080963 
	C54.842175,280.635773 52.458900,277.190613 49.912544,273.171539 
	C49.555508,272.321106 49.302402,272.118378 48.990150,271.989471 
	C48.990150,271.989471 49.001034,271.998901 49.002998,271.626343 
	C48.007965,268.814209 47.010960,266.374664 46.013954,263.935089 
	C46.013954,263.935089 45.996643,263.524109 46.001667,262.935120 
	C45.655289,261.190247 45.303890,260.034332 44.952488,258.878448 
	C44.949123,258.489471 44.945755,258.100525 44.962231,257.069092 
	C44.660965,255.608368 44.339859,254.790146 44.018753,253.971909 
	C44.016022,251.948730 44.013287,249.925537 44.269802,247.194763 
	C45.024212,243.655975 45.519375,240.824783 46.014538,237.993607 
	C46.014538,237.993607 46.000397,238.000641 46.234684,237.824432 
	C46.640778,237.091400 46.812588,236.534546 46.984398,235.977707 
	C46.984394,235.977707 47.002983,235.997284 47.206116,235.870422 
	C47.676765,235.521881 47.845230,235.240814 47.914642,234.900360 
	C47.937073,234.493713 47.959507,234.087067 48.211586,233.239792 
	C48.705120,232.580353 48.890694,232.308151 48.997948,231.982559 
	C48.997948,231.982559 49.002087,232.002853 49.233070,231.820328 
	C49.640041,231.072662 49.816029,230.507507 49.992016,229.942368 
	C52.464291,227.267670 54.936565,224.592972 57.776703,221.867111 
	C58.177582,224.901825 58.210602,227.987732 57.865795,231.701904 
	C49.010548,244.601334 49.204300,259.738068 57.996323,272.044952 
z"/>
<path fill="#1E2A1A" opacity="1.000000" stroke="none" 
	d="
M383.985260,200.976593 
	C384.155090,200.981674 384.324890,200.986771 384.748901,200.972397 
	C391.232269,207.014114 392.997711,214.943787 393.918182,223.086075 
	C394.364410,227.032959 393.974609,231.074371 393.636566,235.366089 
	C392.119781,233.983322 391.056549,232.194305 389.696716,230.669907 
	C388.733582,229.590210 387.369324,228.868362 386.063538,227.534286 
	C385.290436,218.380051 384.637848,209.678314 383.985260,200.976593 
z"/>
<path fill="#453658" opacity="1.000000" stroke="none" 
	d="
M393.068848,265.783264 
	C392.907745,266.146271 392.450104,266.112274 391.925110,265.914032 
	C389.638885,265.148499 387.877594,264.581238 386.020081,263.657013 
	C386.095306,262.330017 386.266785,261.359924 386.683044,260.076660 
	C387.286957,254.841537 387.645996,249.919601 388.211365,244.882355 
	C388.670013,244.566772 388.859436,244.318497 389.341248,244.074066 
	C391.139130,243.738586 392.581665,243.351273 394.024231,242.963959 
	C394.611572,247.299744 395.677460,251.641144 395.626770,255.969482 
	C395.589783,259.128662 394.082062,262.270599 393.068848,265.783264 
z"/>
<path fill="#1A1421" opacity="1.000000" stroke="none" 
	d="
M394.000305,242.530975 
	C392.581665,243.351273 391.139130,243.738586 389.194672,243.842789 
	C388.213531,243.335831 387.734314,243.111984 387.124573,242.737579 
	C386.994049,242.587021 386.825836,242.225769 386.817078,241.856018 
	C386.179565,238.363327 382.690582,235.468185 386.000183,231.623306 
	C386.024902,230.141830 386.104492,229.064316 386.184113,227.986801 
	C387.369324,228.868362 388.733582,229.590210 389.696716,230.669907 
	C391.056549,232.194305 392.119781,233.983322 393.593201,235.832458 
	C393.909882,238.036469 393.943146,240.067215 394.000305,242.530975 
z"/>
<path fill="#1F1925" opacity="1.000000" stroke="none" 
	d="
M369.016815,297.321442 
	C366.537537,299.734619 364.058258,302.147797 361.331879,304.766052 
	C360.859741,304.980469 360.634705,304.989868 359.966919,305.001343 
	C359.524170,305.003418 359.309418,304.965942 359.309418,304.965942 
	C357.293671,304.152740 355.277954,303.339539 353.190002,301.982025 
	C355.074707,299.654663 357.031586,297.871643 359.399963,296.068024 
	C362.879913,296.472137 365.948364,296.896790 369.016815,297.321442 
z"/>
<path fill="#1F1925" opacity="1.000000" stroke="none" 
	d="
M71.757462,298.398254 
	C74.596817,297.295868 77.436180,296.193481 80.651955,295.429810 
	C82.627731,297.492096 84.227097,299.215698 85.826462,300.939301 
	C83.648895,302.065186 81.471321,303.191040 79.120811,304.604767 
	C78.465706,304.651825 77.983536,304.410980 77.085464,303.772339 
	C75.032181,301.715759 73.394821,300.056976 71.757462,298.398254 
z"/>
<path fill="#1E2A1A" opacity="1.000000" stroke="none" 
	d="
M71.392372,298.408997 
	C73.394821,300.056976 75.032181,301.715759 76.832092,303.674072 
	C73.757828,305.346466 70.521027,306.719360 66.464630,308.439850 
	C66.252769,305.582123 66.103172,303.564301 65.892792,301.098938 
	C67.563759,299.907532 69.295517,299.163635 71.392372,298.408997 
z"/>
<path fill="#545B5A" opacity="1.000000" stroke="none" 
	d="
M346.259766,131.777710 
	C344.394470,126.595238 342.769897,121.145912 341.129272,115.320633 
	C345.888153,119.497925 345.575226,125.705704 346.259766,131.777710 
z"/>
<path fill="#545B5A" opacity="1.000000" stroke="none" 
	d="
M92.781754,134.274887 
	C92.924271,138.937332 92.775436,143.904114 92.277908,148.941147 
	C92.116264,144.200668 92.303329,139.389954 92.781754,134.274887 
z"/>
<path fill="#545B5A" opacity="1.000000" stroke="none" 
	d="
M297.488953,360.962524 
	C297.415192,356.018585 297.712219,350.934387 298.031647,345.375244 
	C297.989288,350.207581 297.924530,355.514923 297.488953,360.962524 
z"/>
<path fill="#545B5A" opacity="1.000000" stroke="none" 
	d="
M138.619263,85.067596 
	C134.981094,86.082169 130.923904,87.060989 126.441414,88.031502 
	C130.077484,87.026077 134.138870,86.028961 138.619263,85.067596 
z"/>
<path fill="#545B5A" opacity="1.000000" stroke="none" 
	d="
M136.017914,340.347351 
	C139.713531,340.964203 143.491074,341.933807 141.036255,347.660065 
	C139.350616,345.586121 137.731049,343.138977 136.017914,340.347351 
z"/>
<path fill="#545B5A" opacity="1.000000" stroke="none" 
	d="
M101.625923,107.001770 
	C100.484245,110.127945 99.004860,113.355385 97.255371,116.792366 
	C98.419579,113.702286 99.853897,110.402657 101.625923,107.001770 
z"/>
<path fill="#545B5A" opacity="1.000000" stroke="none" 
	d="
M140.714691,355.229431 
	C141.643753,358.350220 142.325699,361.748077 143.003143,365.555115 
	C142.154968,362.478333 141.311279,358.992432 140.714691,355.229431 
z"/>
<path fill="#545B5A" opacity="1.000000" stroke="none" 
	d="
M45.743168,238.218903 
	C45.519375,240.824783 45.024212,243.655975 44.272053,246.761261 
	C44.500637,244.171646 44.986217,241.307922 45.743168,238.218903 
z"/>
<path fill="#B59FD0" opacity="1.000000" stroke="none" 
	d="
M57.185440,211.496613 
	C57.556324,211.052689 57.868561,210.960754 58.403591,210.768066 
	C58.727036,212.908722 58.806343,215.077606 58.666668,217.568787 
	C58.014503,215.901077 57.581314,213.911087 57.185440,211.496613 
z"/>
<path fill="#575D5E" opacity="1.000000" stroke="none" 
	d="
M314.940704,88.711540 
	C312.270935,88.168800 309.361450,87.362091 306.189972,86.308517 
	C308.852325,86.856956 311.776642,87.652267 314.940704,88.711540 
z"/>
<path fill="#545B5A" opacity="1.000000" stroke="none" 
	d="
M96.733917,117.231575 
	C96.178032,120.186012 95.361786,123.385986 94.289795,126.850815 
	C94.847214,123.902817 95.660393,120.689972 96.733917,117.231575 
z"/>
<path fill="#545B5A" opacity="1.000000" stroke="none" 
	d="
M255.916779,69.697754 
	C254.323380,68.603104 252.697723,67.163574 251.013947,65.390602 
	C252.598709,66.489067 254.241608,67.920967 255.916779,69.697754 
z"/>
<path fill="#545B5A" opacity="1.000000" stroke="none" 
	d="
M173.711304,87.061890 
	C173.607300,88.529114 173.559097,90.404121 172.746429,91.849228 
	C172.364899,92.527687 170.510895,92.378090 169.152008,92.324738 
	C170.471176,90.461647 171.962509,88.877579 173.711304,87.061890 
z"/>
<path fill="#545B5A" opacity="1.000000" stroke="none" 
	d="
M46.006226,264.326050 
	C47.010960,266.374664 48.007965,268.814209 49.005711,271.633057 
	C48.003799,269.580536 47.001144,267.148773 46.006226,264.326050 
z"/>
<path fill="#575D5E" opacity="1.000000" stroke="none" 
	d="
M321.902649,91.736832 
	C320.419678,91.285172 318.765686,90.535255 317.006592,89.459457 
	C318.511505,89.901909 320.121552,90.670250 321.902649,91.736832 
z"/>
<path fill="#575D5E" opacity="1.000000" stroke="none" 
	d="
M373.978180,163.621368 
	C372.673981,162.863571 371.347656,161.761383 369.941467,160.329865 
	C371.226440,161.092667 372.591248,162.184830 373.978180,163.621368 
z"/>
<path fill="#575D5E" opacity="1.000000" stroke="none" 
	d="
M363.957642,155.639160 
	C362.458984,155.181915 360.885651,154.383804 359.158234,153.287628 
	C360.630402,153.759155 362.256683,154.528717 363.957642,155.639160 
z"/>
<path fill="#575D5E" opacity="1.000000" stroke="none" 
	d="
M328.038605,95.656326 
	C326.818024,95.212799 325.526581,94.410957 324.057129,93.322472 
	C325.241974,93.789886 326.604858,94.543945 328.038605,95.656326 
z"/>
<path fill="#545B5A" opacity="1.000000" stroke="none" 
	d="
M285.324310,378.945862 
	C286.100189,378.001740 287.203949,377.034760 288.650574,376.035431 
	C287.879700,376.976410 286.765930,377.949738 285.324310,378.945862 
z"/>
<path fill="#545B5A" opacity="1.000000" stroke="none" 
	d="
M280.320007,380.985046 
	C281.388367,380.310425 282.814301,379.636749 284.605682,378.977600 
	C283.539948,379.656738 282.108765,380.321350 280.320007,380.985046 
z"/>
<path fill="#545B5A" opacity="1.000000" stroke="none" 
	d="
M77.770493,154.040619 
	C76.950539,154.986893 75.773613,155.955795 74.258919,156.948700 
	C75.085274,156.002899 76.249397,155.033081 77.770493,154.040619 
z"/>
<path fill="#575D5E" opacity="1.000000" stroke="none" 
	d="
M122.177856,333.221558 
	C123.243271,333.407745 124.462639,333.905487 125.839722,334.706787 
	C124.775566,334.517914 123.553688,334.025543 122.177856,333.221558 
z"/>
<path fill="#545B5A" opacity="1.000000" stroke="none" 
	d="
M44.745422,259.102112 
	C45.303890,260.034332 45.655289,261.190247 45.994713,262.729584 
	C45.501274,261.850616 45.019814,260.588226 44.745422,259.102112 
z"/>
<path fill="#B59FD0" opacity="1.000000" stroke="none" 
	d="
M57.190788,284.412476 
	C57.559719,284.060425 57.872932,283.968292 58.410057,283.777985 
	C58.730537,284.647186 58.806049,285.542969 58.708729,286.862183 
	C58.075974,286.438416 57.616058,285.591217 57.190788,284.412476 
z"/>
<path fill="#545B5A" opacity="1.000000" stroke="none" 
	d="
M90.716888,149.047974 
	C89.921402,149.699982 88.772736,150.330200 87.269958,150.947128 
	C88.065132,150.297943 89.214424,149.662048 90.716888,149.047974 
z"/>
<path fill="#575D5E" opacity="1.000000" stroke="none" 
	d="
M117.111847,330.284058 
	C118.171875,330.489258 119.409294,330.998901 120.865784,331.768005 
	C119.819649,331.547791 118.554443,331.068115 117.111847,330.284058 
z"/>
<path fill="#545B5A" opacity="1.000000" stroke="none" 
	d="
M43.893681,254.251480 
	C44.339859,254.790146 44.660965,255.608368 44.957649,256.777405 
	C44.545017,256.262482 44.156815,255.396759 43.893681,254.251480 
z"/>
<path fill="#545B5A" opacity="1.000000" stroke="none" 
	d="
M175.605164,82.987396 
	C175.484192,83.836143 175.033096,84.789505 174.305969,85.924347 
	C174.444977,85.101234 174.860001,84.096619 175.605164,82.987396 
z"/>
<path fill="#545B5A" opacity="1.000000" stroke="none" 
	d="
M258.036102,72.716232 
	C257.371796,72.278328 256.711273,71.480301 256.003845,70.365967 
	C256.651245,70.818466 257.345581,71.587288 258.036102,72.716232 
z"/>
<path fill="#545B5A" opacity="1.000000" stroke="none" 
	d="
M294.251343,369.854767 
	C294.456055,368.810455 294.971039,367.607025 295.735596,366.190918 
	C295.510681,367.217407 295.036133,368.456512 294.251343,369.854767 
z"/>
<path fill="#545B5A" opacity="1.000000" stroke="none" 
	d="
M85.655441,150.974060 
	C84.925423,151.324219 83.830116,151.673615 82.371422,152.017029 
	C83.102081,151.665115 84.196121,151.319199 85.655441,150.974060 
z"/>
<path fill="#575D5E" opacity="1.000000" stroke="none" 
	d="
M375.913544,165.724564 
	C375.337097,165.568695 374.718994,165.097305 374.067749,164.313385 
	C374.647003,164.470261 375.259460,164.939667 375.913544,165.724564 
z"/>
<path fill="#575D5E" opacity="1.000000" stroke="none" 
	d="
M377.955231,168.719910 
	C377.333435,168.250443 376.691986,167.456940 376.005676,166.348694 
	C376.619080,166.821274 377.277313,167.608582 377.955231,168.719910 
z"/>
<path fill="#545B5A" opacity="1.000000" stroke="none" 
	d="
M246.905762,61.736916 
	C246.130157,61.545498 245.190948,61.064354 244.078583,60.302391 
	C244.851013,60.496784 245.796600,60.971985 246.905762,61.736916 
z"/>
<path fill="#545B5A" opacity="1.000000" stroke="none" 
	d="
M151.820236,85.745621 
	C151.176132,85.848373 150.302734,85.699326 149.189651,85.315674 
	C149.830292,85.218658 150.710617,85.356239 151.820236,85.745621 
z"/>
<path fill="#575D5E" opacity="1.000000" stroke="none" 
	d="
M368.003418,158.709320 
	C367.452301,158.532867 366.845306,158.034378 366.113342,157.264191 
	C366.641449,157.457428 367.294495,157.922363 368.003418,158.709320 
z"/>
<path fill="#575D5E" opacity="1.000000" stroke="none" 
	d="
M113.227097,328.231201 
	C113.868088,328.170654 114.718887,328.365540 115.773247,328.827332 
	C115.130173,328.891724 114.283539,328.689178 113.227097,328.231201 
z"/>
<path fill="#545B5A" opacity="1.000000" stroke="none" 
	d="
M123.675385,89.004456 
	C123.237503,89.334282 122.468445,89.663605 121.368591,89.993668 
	C121.806595,89.664246 122.575401,89.334099 123.675385,89.004456 
z"/>
<path fill="#545B5A" opacity="1.000000" stroke="none" 
	d="
M93.742126,129.161560 
	C93.847664,129.807022 93.697838,130.678543 93.313667,131.787674 
	C93.215141,131.146057 93.350952,130.266830 93.742126,129.161560 
z"/>
<path fill="#545B5A" opacity="1.000000" stroke="none" 
	d="
M49.757324,230.131058 
	C49.816029,230.507507 49.640041,231.072662 49.222729,231.819183 
	C49.161812,231.440292 49.342224,230.880020 49.757324,230.131058 
z"/>
<path fill="#575D5E" opacity="1.000000" stroke="none" 
	d="
M365.838562,156.764801 
	C365.458221,156.824051 364.905273,156.639511 364.179443,156.212067 
	C364.559692,156.153107 365.112823,156.337067 365.838562,156.764801 
z"/>
<path fill="#545B5A" opacity="1.000000" stroke="none" 
	d="
M298.350922,343.072632 
	C298.518707,342.761963 298.982971,342.396759 299.759521,342.006561 
	C299.596985,342.327057 299.122192,342.672546 298.350922,343.072632 
z"/>
<path fill="#575D5E" opacity="1.000000" stroke="none" 
	d="
M126.164917,335.246704 
	C126.548080,335.191681 127.104301,335.377625 127.825256,335.816528 
	C127.439316,335.875549 126.888641,335.681580 126.164917,335.246704 
z"/>
<path fill="#545B5A" opacity="1.000000" stroke="none" 
	d="
M46.746262,236.157440 
	C46.812588,236.534546 46.640778,237.091400 46.235188,237.832336 
	C46.170315,237.456665 46.339222,236.896912 46.746262,236.157440 
z"/>
<path fill="#575D5E" opacity="1.000000" stroke="none" 
	d="
M358.838196,152.740143 
	C358.449524,152.817291 357.891205,152.641846 357.140045,152.236115 
	C357.520996,152.166382 358.094757,152.326950 358.838196,152.740143 
z"/>
<path fill="#545B5A" opacity="1.000000" stroke="none" 
	d="
M125.716553,88.040741 
	C125.541245,88.342964 125.068512,88.659920 124.298691,88.992500 
	C124.474113,88.690575 124.946632,88.373016 125.716553,88.040741 
z"/>
<path fill="#545B5A" opacity="1.000000" stroke="none" 
	d="
M292.251709,372.924683 
	C292.186462,372.531128 292.366852,371.934387 292.795349,371.136627 
	C292.861420,371.530914 292.679382,372.126221 292.251709,372.924683 
z"/>
<path fill="#545B5A" opacity="1.000000" stroke="none" 
	d="
M250.794785,64.799942 
	C250.423859,64.846046 249.889145,64.650085 249.189026,64.215240 
	C249.559418,64.170197 250.095215,64.364037 250.794785,64.799942 
z"/>
<path fill="#545B5A" opacity="1.000000" stroke="none" 
	d="
M338.978455,108.685135 
	C338.670715,108.518661 338.347321,108.058228 338.003967,107.303497 
	C338.310242,107.469849 338.636505,107.930511 338.978455,108.685135 
z"/>
<path fill="#545B5A" opacity="1.000000" stroke="none" 
	d="
M339.993256,110.793861 
	C339.682434,110.609917 339.359375,110.115829 339.026245,109.318588 
	C339.337769,109.504860 339.659363,109.994293 339.993256,110.793861 
z"/>
<path fill="#545B5A" opacity="1.000000" stroke="none" 
	d="
M341.135559,112.922180 
	C340.745728,112.849541 340.485321,112.604370 340.136383,112.100868 
	C340.453552,112.144905 340.859314,112.447273 341.135559,112.922180 
z"/>
<path fill="#545B5A" opacity="1.000000" stroke="none" 
	d="
M248.911072,63.739960 
	C248.744583,63.766823 248.473831,63.558933 248.107849,63.106190 
	C248.277359,63.075958 248.542084,63.290585 248.911072,63.739960 
z"/>
<path fill="#545B5A" opacity="1.000000" stroke="none" 
	d="
M176.751373,80.026703 
	C176.811615,80.189262 176.643204,80.509308 176.255020,80.995880 
	C176.197739,80.836334 176.360229,80.510262 176.751373,80.026703 
z"/>
<path fill="#545B5A" opacity="1.000000" stroke="none" 
	d="
M289.234680,375.885864 
	C289.209778,375.724731 289.415039,375.455597 289.861816,375.089905 
	C289.890472,375.254822 289.677673,375.516357 289.234680,375.885864 
z"/>
<path fill="#545B5A" opacity="1.000000" stroke="none" 
	d="
M297.083801,363.889465 
	C296.927002,363.788391 296.946594,363.613892 296.997650,363.176880 
	C297.176208,363.109802 297.344421,363.294281 297.455750,363.508331 
	C297.483887,363.562378 297.330292,363.710938 297.083801,363.889465 
z"/>
<path fill="#545B5A" opacity="1.000000" stroke="none" 
	d="
M242.968719,59.762733 
	C242.821121,59.799175 242.526917,59.620228 242.089630,59.222336 
	C242.238388,59.184700 242.530243,59.366020 242.968719,59.762733 
z"/>
<path fill="#545B5A" opacity="1.000000" stroke="none" 
	d="
M134.115280,339.205750 
	C134.309723,339.096863 134.579239,339.277496 134.934937,339.737366 
	C134.736221,339.860596 134.459305,339.686829 134.115280,339.205750 
z"/>
<path fill="#575D5E" opacity="1.000000" stroke="none" 
	d="
M112.032242,327.221344 
	C112.186211,327.180237 112.479141,327.352661 112.893906,327.752258 
	C112.734238,327.797943 112.452721,327.616394 112.032242,327.221344 
z"/>
<path fill="#1A2616" opacity="1.000000" stroke="none" 
	d="
M359.282349,305.107117 
	C359.309418,304.965942 359.524170,305.003418 359.629242,305.012878 
	C359.734314,305.022308 359.541748,305.458466 359.433746,305.492737 
	C359.325745,305.527039 359.255249,305.248291 359.282349,305.107117 
z"/>
<path fill="#575D5E" opacity="1.000000" stroke="none" 
	d="
M304.890991,85.883163 
	C304.976990,86.029289 304.514435,86.027039 304.283691,86.026810 
	C304.303650,85.930077 304.554321,85.833565 304.890991,85.883163 
z"/>
<path fill="#545B5A" opacity="1.000000" stroke="none" 
	d="
M335.895630,104.794395 
	C335.696869,104.894852 335.437805,104.704895 335.128418,104.216805 
	C335.320953,104.130264 335.573364,104.325363 335.895630,104.794395 
z"/>
<path fill="#545B5A" opacity="1.000000" stroke="none" 
	d="
M336.901367,105.759781 
	C336.685577,105.878128 336.425629,105.689232 336.110657,105.200981 
	C336.325043,105.077209 336.592255,105.260841 336.901367,105.759781 
z"/>
<path fill="#545B5A" opacity="1.000000" stroke="none" 
	d="
M337.887268,106.790474 
	C337.667999,106.906967 337.411499,106.715187 337.118408,106.215256 
	C337.342957,106.092171 337.598999,106.283867 337.887268,106.790474 
z"/>
<path fill="#545B5A" opacity="1.000000" stroke="none" 
	d="
M49.099464,272.209412 
	C49.302402,272.118378 49.555508,272.321106 49.858009,272.818420 
	C49.657970,272.905457 49.405380,272.702179 49.099464,272.209412 
z"/>
<path fill="#545B5A" opacity="1.000000" stroke="none" 
	d="
M81.771324,152.110352 
	C81.789215,152.272400 81.571060,152.534653 81.105141,152.884857 
	C81.083336,152.718735 81.309303,152.464645 81.771324,152.110352 
z"/>
<path fill="#545B5A" opacity="1.000000" stroke="none" 
	d="
M79.865021,153.109283 
	C79.872650,153.273972 79.625633,153.532974 79.123184,153.886932 
	C79.115288,153.722443 79.362831,153.463013 79.865021,153.109283 
z"/>
<path fill="#545B5A" opacity="1.000000" stroke="none" 
	d="
M48.777531,232.105469 
	C48.890694,232.308151 48.705120,232.580353 48.231045,232.934952 
	C48.199608,232.789948 48.378361,232.509155 48.777531,232.105469 
z"/>
<path fill="#545B5A" opacity="1.000000" stroke="none" 
	d="
M47.711208,235.038574 
	C47.845230,235.240814 47.676765,235.521881 47.193314,235.868378 
	C47.076256,235.670456 47.253056,235.398315 47.711208,235.038574 
z"/>
<path fill="#FDFCFD" opacity="1.000000" stroke="none" 
	d="
M173.975708,131.028976 
	C176.215637,130.564453 178.455582,130.099915 181.436813,129.427063 
	C195.474335,127.836014 206.774368,130.628784 212.997452,144.366455 
	C220.505997,161.831131 215.922073,184.214066 202.776291,195.269089 
	C206.425644,197.584076 210.132690,199.935669 213.886124,202.626373 
	C214.660034,204.319702 215.387527,205.673935 216.105316,207.451248 
	C216.727478,215.220779 217.794113,222.561188 217.896133,229.914978 
	C218.079849,243.157211 213.841400,254.638962 202.501740,262.975800 
	C200.470779,264.101074 198.760162,265.137268 196.667038,266.164917 
	C190.655548,267.451843 185.059296,268.918640 179.389755,270.002045 
	C171.269363,271.553833 163.095474,272.825531 154.628876,274.175781 
	C153.523102,274.381775 152.732880,274.628845 151.942657,274.875885 
	C150.634766,275.003998 149.326874,275.132111 147.242462,275.166077 
	C145.811752,273.928406 145.157562,272.784882 144.497284,271.237122 
	C144.192047,265.731293 143.892868,260.629700 143.766083,255.042816 
	C144.006577,252.398743 144.133133,250.239975 144.134033,248.081146 
	C144.148270,214.146347 144.222000,180.211182 144.060379,146.277161 
	C144.038055,141.590073 145.164154,138.876114 150.082794,137.700623 
	C158.119553,135.779907 166.018570,133.282867 173.975708,131.028976 
M184.882324,184.203094 
	C191.221863,177.529709 187.880905,169.574783 187.774200,161.316559 
	C186.087433,156.300827 182.448990,155.813400 177.222260,156.975342 
	C173.194992,156.868149 171.763153,158.785568 172.077469,162.785263 
	C172.399521,166.883377 172.150681,171.026382 172.151093,175.149750 
	C172.151505,179.323868 172.151184,183.497971 172.151184,188.399994 
	C175.518585,187.475281 177.851181,186.834732 180.847687,186.154846 
	C181.997360,185.642624 183.147034,185.130417 184.882324,184.203094 
M189.346588,218.951401 
	C187.250168,212.040176 179.646393,208.922150 173.541092,212.569122 
	C172.858475,212.976868 172.224121,214.105743 172.216751,214.906174 
	C172.126694,224.667892 172.158234,234.430710 172.158234,245.036530 
	C175.379929,244.330765 177.894531,243.779892 181.122208,243.220612 
	C183.725800,240.729202 187.804352,238.633987 188.603775,235.657959 
	C189.964844,230.591034 189.264069,224.970230 189.346588,218.951401 
z"/>
<path fill="#FDFDFD" opacity="1.000000" stroke="none" 
	d="
M259.056488,129.845367 
	C261.096954,130.225769 263.137451,130.606171 265.830383,131.217865 
	C278.024231,134.054474 287.780273,139.429291 294.393005,149.591721 
	C296.324341,152.559830 298.086334,155.638123 299.606232,158.886810 
	C300.103821,167.386978 301.508850,175.661179 301.580048,183.946838 
	C301.657715,192.985397 299.053711,201.108170 291.043030,203.071732 
	C293.664093,206.546646 296.805481,210.711380 299.993195,215.229584 
	C300.767700,216.751022 301.495880,217.919006 302.117004,219.411285 
	C302.761810,226.183853 303.513702,232.632080 304.181274,239.512756 
	C304.110779,248.176300 302.178192,255.885651 297.637939,263.140900 
	C293.928711,265.655518 290.505768,268.001953 286.662598,270.291016 
	C278.876129,270.355255 271.504303,270.710815 264.145325,270.532990 
	C256.742950,270.354065 249.353424,269.644440 241.639496,269.045837 
	C240.237976,268.774200 239.155258,268.624115 238.072525,268.473999 
	C237.059799,268.374115 236.047058,268.274231 234.238312,268.119263 
	C229.652664,267.869385 230.109329,265.052368 230.108627,262.584564 
	C230.096115,218.944656 230.130478,175.304688 230.036148,131.664993 
	C230.028290,128.027847 231.045593,126.364464 234.862869,126.862740 
	C242.919907,127.914421 250.991104,128.857635 259.056488,129.845367 
M266.525543,187.843201 
	C271.190948,188.097122 273.789581,185.527695 274.220581,181.250946 
	C274.658173,176.908646 274.313446,172.487503 274.259308,167.311127 
	C272.308807,159.606033 267.301361,156.289597 258.069794,156.824417 
	C258.069794,164.248917 257.993347,171.698578 258.090424,179.145981 
	C258.196259,187.264526 256.541992,186.439392 266.525543,187.843201 
M266.467468,244.778946 
	C270.509583,244.938538 274.118683,243.428772 274.693726,239.393143 
	C275.457489,234.033325 275.001434,228.499695 275.035980,222.282394 
	C272.622253,214.292206 267.575775,211.135086 258.074066,212.032288 
	C258.074066,220.040955 258.025330,228.106232 258.087555,236.170639 
	C258.151917,244.513977 256.827881,243.519745 266.467468,244.778946 
z"/>
<path fill="#FDFDFD" opacity="1.000000" stroke="none" 
	d="
M369.401245,297.195343 
	C365.948364,296.896790 362.879913,296.472137 359.094391,295.863068 
	C349.487701,291.898499 340.605316,288.101074 331.696381,284.366943 
	C330.877258,284.023621 329.888702,284.084656 328.978821,283.957916 
	C327.883148,282.618103 326.787476,281.278290 325.338623,279.531250 
	C319.281494,273.051331 315.151642,266.089355 313.060089,257.654816 
	C312.835602,256.515533 312.594116,255.706833 312.309021,254.470444 
	C312.092987,252.341675 311.920624,250.640610 311.831482,248.483353 
	C311.873657,243.046082 311.832611,238.064987 311.943115,232.684601 
	C312.055054,230.867401 312.015442,229.449524 312.187439,227.893112 
	C312.267242,227.167068 312.135437,226.579544 312.019135,225.524063 
	C312.031799,217.808960 312.126038,210.559418 311.948639,203.316544 
	C311.910675,201.766586 310.887909,200.240723 310.289734,198.338364 
	C310.342438,196.757278 310.424194,195.541595 310.866333,194.176208 
	C310.999939,190.907486 310.773163,187.788498 310.470764,184.284851 
	C310.359039,182.351440 310.322937,180.802658 310.668030,179.164749 
	C311.439636,177.537460 311.960144,176.019318 312.200165,174.458054 
	C314.466034,159.720337 320.914429,154.858246 335.440735,156.976547 
	C336.250366,157.094620 337.081696,157.063980 337.902924,157.102539 
	C340.035553,158.101700 342.168152,159.100861 344.864685,160.407318 
	C350.961334,164.262650 356.803711,167.418182 361.939545,171.469421 
	C367.050507,175.501038 371.451996,180.432114 376.164551,184.968811 
	C378.597595,190.148880 381.030640,195.328949 383.724487,200.742798 
	C384.637848,209.678314 385.290436,218.380051 386.063538,227.534286 
	C386.104492,229.064316 386.024902,230.141830 385.763916,231.867340 
	C382.408936,231.311493 379.235352,230.107635 375.853394,228.638077 
	C373.620544,227.364044 371.596130,226.355728 369.329346,225.105820 
	C367.389038,224.074692 365.691071,223.285156 363.780945,222.252686 
	C357.097656,220.115448 354.651764,215.852844 355.801605,209.243256 
	C356.108307,207.480225 355.733398,205.598602 355.692444,203.395569 
	C355.370422,201.243668 355.617767,198.891739 354.562744,197.810074 
	C352.284180,195.473969 349.337402,193.789642 346.664001,191.838684 
	C345.750061,194.411316 344.079224,196.973755 344.044464,199.558197 
	C343.810486,216.955948 343.877991,234.358643 343.977325,251.758987 
	C343.991089,254.164169 344.718842,256.565277 345.141510,259.311646 
	C347.122223,261.062561 349.077515,262.470093 351.401367,263.963501 
	C355.163422,263.681915 355.725037,261.391846 355.570648,258.142883 
	C355.702667,254.522964 355.758362,251.324005 355.925629,247.703659 
	C356.574951,245.026978 353.893677,241.313721 359.029999,241.363464 
	C361.749695,242.660675 364.293945,243.656113 366.992065,244.986145 
	C371.684845,247.714249 376.181061,250.193863 380.776855,252.472595 
	C384.138031,254.139191 386.336578,256.472321 386.438232,260.389862 
	C386.266785,261.359924 386.095306,262.330017 385.931458,264.113098 
	C386.002350,268.957764 386.065674,272.989380 386.128967,277.021027 
	C385.973816,278.657471 385.866730,280.300140 385.655579,281.929321 
	C384.399872,291.617981 380.083710,295.724548 369.401245,297.195343 
z"/>
<path fill="#BF9DE5" opacity="1.000000" stroke="none" 
	d="
M259.011902,129.418823 
	C250.991104,128.857635 242.919907,127.914421 234.862869,126.862740 
	C231.045593,126.364464 230.028290,128.027847 230.036148,131.664993 
	C230.130478,175.304688 230.096115,218.944656 230.108627,262.584564 
	C230.109329,265.052368 229.652664,267.869385 233.853348,268.162811 
	C229.769562,293.802673 225.274704,319.343933 220.779846,344.885162 
	C220.097687,344.846771 219.415527,344.808380 218.733368,344.769989 
	C214.703720,321.763794 210.674072,298.757568 206.751282,275.080933 
	C216.044708,269.132599 223.342346,261.818665 224.625732,251.146896 
	C225.857605,240.903275 225.497177,230.383957 224.904373,220.039215 
	C224.589371,214.542191 221.615250,209.629883 216.115021,207.028168 
	C215.387527,205.673935 214.660034,204.319702 214.118683,202.352173 
	C219.431854,197.746780 222.651932,192.491531 223.099716,186.071121 
	C223.653580,178.130066 224.278473,170.060349 223.429657,162.202087 
	C222.865082,156.975357 220.002197,151.913971 217.675964,147.012115 
	C216.998535,145.584625 214.626938,144.961121 213.031921,143.969086 
	C206.774368,130.628784 195.474335,127.836014 181.732513,129.193954 
	C179.282928,118.563599 176.571823,108.059540 178.730957,97.071411 
	C183.326874,73.681992 203.678436,58.468754 226.118073,61.852844 
	C247.665756,65.102425 264.267273,87.713226 261.574127,110.246613 
	C260.825592,116.509560 259.842712,122.744499 259.011902,129.418823 
z"/>
<path fill="#BD9BE3" opacity="1.000000" stroke="none" 
	d="
M198.989456,277.019409 
	C202.356247,296.020630 205.727173,315.021149 209.087463,334.023529 
	C210.151596,340.041168 211.187332,346.063812 212.236084,352.084167 
	C211.835144,352.306030 211.434204,352.527893 211.033264,352.749756 
	C207.012848,348.001801 202.664230,343.491058 199.030731,338.463470 
	C185.688736,320.002380 172.584229,301.369690 159.742630,282.428314 
	C173.059769,280.376495 186.024612,278.697968 198.989456,277.019409 
z"/>
<path fill="#BD9BE3" opacity="1.000000" stroke="none" 
	d="
M280.061401,281.985809 
	C277.689331,286.120819 275.709137,290.548218 272.879120,294.341553 
	C258.758698,313.268311 244.419205,332.031616 230.134766,350.835693 
	C229.576843,351.570129 228.794647,352.134216 227.026520,353.813080 
	C231.519012,327.921143 235.766785,303.439636 240.484833,278.439392 
	C253.990540,279.275696 267.025970,280.630737 280.061401,281.985809 
z"/>
<path fill="#BD9CE2" opacity="1.000000" stroke="none" 
	d="
M313.043121,257.985413 
	C315.151642,266.089355 319.281494,273.051331 324.997864,279.456970 
	C324.143433,280.968628 323.411957,282.282440 322.389893,283.306091 
	C301.180450,304.548615 278.319214,323.822449 253.553391,340.806244 
	C252.069839,341.823639 250.313477,342.443176 248.068405,343.551849 
	C262.156158,322.841248 275.705414,302.922363 289.588928,282.539368 
	C290.604126,281.687195 291.285004,281.299072 292.351929,280.989563 
	C305.507568,278.671814 310.112854,269.471954 312.241058,257.987610 
	C312.686646,257.988586 312.864868,257.987000 313.043121,257.985413 
z"/>
<path fill="#BB9AE1" opacity="1.000000" stroke="none" 
	d="
M350.883362,302.956512 
	C321.404236,323.164124 290.013153,339.713043 256.524384,352.242065 
	C254.968781,352.824066 253.354446,353.249054 251.209412,352.708923 
	C251.763458,352.018982 252.186691,351.129761 252.890427,350.667755 
	C280.519867,332.527985 305.453613,311.122620 328.961029,287.983765 
	C329.078644,287.868011 329.223541,287.779999 329.936523,287.729401 
	C336.223724,291.932129 341.939301,296.072021 347.628845,300.247375 
	C348.764679,301.080902 349.801117,302.049957 350.883362,302.956512 
z"/>
<path fill="#BB9AE1" opacity="1.000000" stroke="none" 
	d="
M115.007111,291.955872 
	C130.784531,305.726776 146.399490,319.690399 162.409546,333.185303 
	C170.133865,339.696167 178.601715,345.324921 186.526978,352.491577 
	C185.199081,352.404083 183.745590,352.640625 182.561600,352.181793 
	C149.850800,339.505524 118.744347,323.753754 89.937042,303.624878 
	C89.022141,302.985626 88.118660,302.330017 87.464554,301.188049 
	C96.815208,297.781311 105.911156,294.868591 115.007111,291.955872 
z"/>
<path fill="#BC9BE1" opacity="1.000000" stroke="none" 
	d="
M144.503372,271.641388 
	C145.157562,272.784882 145.811752,273.928406 146.851562,275.236420 
	C147.698105,277.062408 147.761902,278.993866 148.680084,280.344482 
	C160.739197,298.082916 172.917953,315.739960 185.069214,333.415710 
	C187.091309,336.357086 189.125397,339.290253 190.577682,342.844330 
	C165.578629,327.453094 143.449417,308.532318 122.098091,287.903839 
	C129.138382,280.995941 135.405991,273.970154 138.209793,264.201385 
	C140.607239,267.035553 142.555313,269.338470 144.503372,271.641388 
z"/>
<path fill="#BB9AE1" opacity="1.000000" stroke="none" 
	d="
M201.936340,366.953247 
	C203.690018,367.519287 205.067932,367.998016 206.445847,368.476776 
	C206.513046,368.968048 206.580246,369.459320 206.647446,369.950592 
	C198.506180,371.589325 190.403503,373.473541 182.207230,374.762573 
	C178.149719,375.400665 173.900864,375.217041 169.771286,374.931763 
	C154.298157,373.862946 146.023590,363.120941 148.542923,347.521393 
	C166.225403,353.973175 183.892990,360.419525 201.936340,366.953247 
z"/>
<path fill="#BB9AE0" opacity="1.000000" stroke="none" 
	d="
M279.412476,372.689880 
	C263.359070,377.876343 248.480698,373.843445 232.541016,369.375153 
	C252.614731,361.783691 271.467041,354.654144 290.332886,347.519501 
	C294.076019,356.161346 288.640106,369.480103 279.412476,372.689880 
z"/>
<path fill="#4B3F59" opacity="1.000000" stroke="none" 
	d="
M216.105316,207.451248 
	C221.615250,209.629883 224.589371,214.542191 224.904373,220.039215 
	C225.497177,230.383957 225.857605,240.903275 224.625732,251.146896 
	C223.342346,261.818665 216.044708,269.132599 206.599792,274.674927 
	C206.341476,274.939331 205.959549,274.844086 205.884125,274.393433 
	C205.465256,270.081268 206.618362,265.815491 202.822052,262.886749 
	C213.841400,254.638962 218.079849,243.157211 217.896133,229.914978 
	C217.794113,222.561188 216.727478,215.220779 216.105316,207.451248 
z"/>
<path fill="#4A3E58" opacity="1.000000" stroke="none" 
	d="
M280.370850,281.991974 
	C267.025970,280.630737 253.990540,279.275696 240.507751,278.032043 
	C240.048599,277.951813 240.036789,277.760162 240.183899,276.951172 
	C240.881271,273.945007 241.419769,271.556213 241.958267,269.167389 
	C249.353424,269.644440 256.742950,270.354065 264.145325,270.532990 
	C271.504303,270.710815 278.876129,270.355255 286.677368,270.641052 
	C285.381073,274.704956 283.649750,278.361420 281.918457,282.017883 
	C281.505737,282.011292 281.092987,282.004730 280.370850,281.991974 
z"/>
<path fill="#4A3D59" opacity="1.000000" stroke="none" 
	d="
M144.497284,271.237122 
	C142.555313,269.338470 140.607239,267.035553 138.209793,264.201385 
	C135.405991,273.970154 129.138382,280.995941 121.836067,287.677551 
	C121.369698,288.001373 121.031944,288.000549 120.397797,287.638214 
	C118.399231,284.844971 116.697060,282.413239 114.994888,279.981506 
	C122.583694,272.938110 128.488419,264.844604 131.433716,254.204071 
	C133.939407,256.159454 135.866821,258.455963 138.685349,261.814270 
	C139.441101,258.029022 139.995697,255.251266 140.825500,252.627563 
	C141.931717,253.697113 142.762711,254.612610 143.593689,255.528107 
	C143.892868,260.629700 144.192047,265.731293 144.497284,271.237122 
z"/>
<path fill="#4A3F58" opacity="1.000000" stroke="none" 
	d="
M198.996613,276.752075 
	C186.024612,278.697968 173.059769,280.376495 159.696350,282.100708 
	C159.089661,282.118774 158.881546,282.091125 158.313538,281.680786 
	C156.950577,278.937653 155.947510,276.577209 154.944427,274.216797 
	C163.095474,272.825531 171.269363,271.553833 179.389755,270.002045 
	C185.059296,268.918640 190.655548,267.451843 196.711823,266.547729 
	C197.765076,269.942749 198.391052,272.946381 199.016998,275.950012 
	C199.012589,276.128265 199.008194,276.306488 198.996613,276.752075 
z"/>
<path fill="#4B4059" opacity="1.000000" stroke="none" 
	d="
M115.004059,291.700623 
	C105.911156,294.868591 96.815208,297.781311 87.395386,300.856293 
	C86.864243,301.008209 86.656967,300.997833 86.138077,300.963379 
	C84.227097,299.215698 82.627731,297.492096 81.019104,295.434845 
	C86.958199,292.839539 92.940186,290.661285 98.841454,288.282776 
	C102.025558,286.999420 105.071564,285.373383 108.549667,284.248169 
	C110.944122,286.707916 112.968788,288.821411 114.993454,290.934906 
	C114.995979,291.105042 114.998497,291.275208 115.004059,291.700623 
z"/>
<path fill="#50445E" opacity="1.000000" stroke="none" 
	d="
M351.134460,302.878540 
	C349.801117,302.049957 348.764679,301.080902 347.628845,300.247375 
	C341.939301,296.072021 336.223724,291.932129 330.240051,287.532867 
	C329.719666,286.355927 329.476501,285.425842 329.106079,284.226868 
	C329.888702,284.084656 330.877258,284.023621 331.696381,284.366943 
	C340.605316,288.101074 349.487701,291.898499 358.682892,295.883636 
	C357.031586,297.871643 355.074707,299.654663 352.928070,301.734192 
	C352.287384,302.287262 351.836487,302.543915 351.134460,302.878540 
z"/>
<path fill="#1E1726" opacity="1.000000" stroke="none" 
	d="
M282.384216,282.031982 
	C283.649750,278.361420 285.381073,274.704956 287.097595,270.698456 
	C290.505768,268.001953 293.928711,265.655518 298.029266,263.148590 
	C299.489716,262.989960 300.272491,262.991791 300.994934,263.347046 
	C300.162750,265.131439 299.370697,266.551941 298.622803,267.995361 
	C296.394531,272.295715 294.183563,276.605072 291.965881,280.910950 
	C291.285004,281.299072 290.604126,281.687195 289.655151,282.192505 
	C287.208069,282.221832 285.029022,282.133942 282.384216,282.031982 
z"/>
<path fill="#1E1726" opacity="1.000000" stroke="none" 
	d="
M199.405609,275.982727 
	C198.391052,272.946381 197.765076,269.942749 197.094330,266.556305 
	C198.760162,265.137268 200.470779,264.101074 202.501740,262.975800 
	C206.618362,265.815491 205.465256,270.081268 205.693939,274.342712 
	C203.650879,275.166931 201.722549,275.591187 199.405609,275.982727 
z"/>
<path fill="#1E1726" opacity="1.000000" stroke="none" 
	d="
M115.304619,290.822266 
	C112.968788,288.821411 110.944122,286.707916 108.911545,284.216064 
	C110.717514,282.603577 112.531403,281.369385 114.670090,280.058350 
	C116.697060,282.413239 118.399231,284.844971 120.144012,287.638641 
	C118.663002,288.903595 117.139389,289.806610 115.304619,290.822266 
z"/>
<path fill="#1E1726" opacity="1.000000" stroke="none" 
	d="
M154.628876,274.175781 
	C155.947510,276.577209 156.950577,278.937653 158.000092,281.650299 
	C152.359558,284.094025 152.030045,283.755768 151.962662,275.327026 
	C152.732880,274.628845 153.523102,274.381775 154.628876,274.175781 
z"/>
<path fill="#211A29" opacity="1.000000" stroke="none" 
	d="
M241.639496,269.045837 
	C241.419769,271.556213 240.881271,273.945007 240.171692,276.663452 
	C239.355835,274.428192 238.711075,271.863281 238.069412,268.886200 
	C239.155258,268.624115 240.237976,268.774200 241.639496,269.045837 
z"/>
<path fill="#BF9DE6" opacity="1.000000" stroke="none" 
	d="
M143.766098,255.042816 
	C142.762711,254.612610 141.931717,253.697113 140.777374,252.265808 
	C140.209152,250.534180 139.964279,249.318329 139.864594,247.648712 
	C139.655472,241.649902 139.783493,236.017227 138.796661,230.587158 
	C137.984573,226.118683 135.441376,222.315125 130.038300,221.985260 
	C129.351395,220.928207 128.664505,219.871155 128.084732,218.167419 
	C140.705597,203.344772 140.474457,186.916779 135.677551,170.193802 
	C134.685730,166.736099 129.947296,164.353073 126.935631,161.474747 
	C119.556450,154.362823 111.164558,154.814621 102.021301,158.234894 
	C98.833588,142.482956 99.351936,126.982796 107.450401,112.703506 
	C118.625511,92.999489 149.315475,86.762718 167.485214,100.291534 
	C168.838516,101.299164 169.816574,103.408508 170.103836,105.148529 
	C171.482193,113.497429 172.562790,121.895470 173.862427,130.652527 
	C166.018570,133.282867 158.119553,135.779907 150.082794,137.700623 
	C145.164154,138.876114 144.038055,141.590073 144.060379,146.277161 
	C144.222000,180.211182 144.148270,214.146347 144.134033,248.081146 
	C144.133133,250.239975 144.006577,252.398743 143.766098,255.042816 
z"/>
<path fill="#4D415A" opacity="1.000000" stroke="none" 
	d="
M126.876373,161.899811 
	C129.947296,164.353073 134.685730,166.736099 135.677551,170.193802 
	C140.474457,186.916779 140.705597,203.344772 128.060257,217.844208 
	C124.264923,217.110703 120.601173,216.053680 116.952866,215.001129 
	C129.462296,205.154709 134.048569,181.382950 126.876373,161.899811 
z"/>
<path fill="#51465F" opacity="1.000000" stroke="none" 
	d="
M94.933472,213.010925 
	C92.431587,214.494751 89.929703,215.978577 86.314880,218.122467 
	C86.314880,208.475281 85.414574,199.833618 86.844315,191.596375 
	C87.293678,189.007462 93.875076,187.122177 97.935799,185.780167 
	C98.922737,185.453979 101.041199,188.551605 102.337814,190.554169 
	C96.331322,192.863953 93.549896,196.340042 94.660843,202.691742 
	C95.247307,206.044785 94.873634,209.565765 94.933472,213.010925 
z"/>
<path fill="#B59FD0" opacity="1.000000" stroke="none" 
	d="
M58.229774,271.704407 
	C49.204300,259.738068 49.010548,244.601334 57.784248,232.152313 
	C58.309025,237.035492 58.702747,242.095703 58.728195,247.157761 
	C58.768749,255.225830 58.564152,263.295105 58.229774,271.704407 
z"/>
<path fill="#BC9DE0" opacity="1.000000" stroke="none" 
	d="
M65.410782,179.013306 
	C69.787590,167.095383 79.263779,160.801025 91.134010,157.626404 
	C92.012253,157.391510 93.560226,159.660782 94.870911,161.150925 
	C85.216194,167.347870 75.487404,173.159775 65.410782,179.013306 
z"/>
<path fill="#544961" opacity="1.000000" stroke="none" 
	d="
M86.463257,250.647079 
	C86.369385,249.677139 86.196739,248.707428 86.194023,247.737244 
	C86.171021,239.514496 87.774300,237.599152 95.934235,236.151215 
	C99.972801,235.434601 102.816734,236.536987 102.710785,241.562851 
	C93.116394,245.202942 94.934227,244.343826 94.727966,252.220947 
	C94.676170,254.199097 94.503654,256.174072 94.110771,258.009064 
	C91.377701,255.460770 88.920479,253.053925 86.463257,250.647079 
z"/>
<path fill="#BE9FE1" opacity="1.000000" stroke="none" 
	d="
M94.386620,258.150513 
	C94.503654,256.174072 94.676170,254.199097 94.727966,252.220947 
	C94.934227,244.343826 93.116394,245.202942 102.616676,241.947968 
	C104.922295,250.080795 104.780396,257.764526 97.675598,263.672424 
	C96.298340,261.617279 95.342476,259.883881 94.386620,258.150513 
z"/>
<path fill="#4D415A" opacity="1.000000" stroke="none" 
	d="
M130.096924,222.380096 
	C135.441376,222.315125 137.984573,226.118683 138.796661,230.587158 
	C139.783493,236.017227 139.655472,241.649902 139.545380,247.558945 
	C136.798630,244.968414 134.516266,242.013840 132.233902,239.059265 
	C131.541122,233.631149 130.848343,228.203049 130.096924,222.380096 
z"/>
<path fill="#C0A1E4" opacity="1.000000" stroke="none" 
	d="
M95.266693,212.908783 
	C94.873634,209.565765 95.247307,206.044785 94.660843,202.691742 
	C93.549896,196.340042 96.331322,192.863953 102.350769,190.895660 
	C102.294907,195.792206 102.520958,200.975281 101.317268,205.801788 
	C100.657455,208.447464 97.584656,210.491379 95.266693,212.908783 
z"/>
<path fill="#1A1421" opacity="1.000000" stroke="none" 
	d="
M132.161423,239.501282 
	C134.516266,242.013840 136.798630,244.968414 139.400208,248.012726 
	C139.964279,249.318329 140.209152,250.534180 140.502167,252.111755 
	C139.995697,255.251266 139.441101,258.029022 138.685349,261.814270 
	C135.866821,258.455963 133.939407,256.159454 131.664413,253.887650 
	C131.401535,252.899567 131.486252,251.886749 131.906799,250.412872 
	C132.174957,249.306351 132.107269,248.660873 132.039566,248.015411 
	C132.056030,245.324707 132.072495,242.633987 132.161423,239.501282 
z"/>
<path fill="#211A29" opacity="1.000000" stroke="none" 
	d="
M94.110771,258.009064 
	C95.342476,259.883881 96.298340,261.617279 97.348274,263.712891 
	C95.528976,265.030090 93.615601,265.985046 91.177612,266.673645 
	C89.317986,265.255280 87.982979,264.103271 86.647964,262.951294 
	C86.526558,259.169861 86.405151,255.388443 86.373505,251.127045 
	C88.920479,253.053925 91.377701,255.460770 94.110771,258.009064 
z"/>
<path fill="#544961" opacity="1.000000" stroke="none" 
	d="
M86.464630,263.257904 
	C87.982979,264.103271 89.317986,265.255280 90.822403,266.690308 
	C89.753731,267.583466 88.515663,268.193573 86.281281,269.294678 
	C86.281281,266.831055 86.281281,265.197784 86.464630,263.257904 
z"/>
<path fill="#4D415A" opacity="1.000000" stroke="none" 
	d="
M131.872559,248.250824 
	C132.107269,248.660873 132.174957,249.306351 132.030960,250.051346 
	C131.781357,249.595993 131.743454,249.041122 131.872559,248.250824 
z"/>
<path fill="#C09EE6" opacity="1.000000" stroke="none" 
	d="
M338.042236,156.694763 
	C337.081696,157.063980 336.250366,157.094620 335.440735,156.976547 
	C320.914429,154.858246 314.466034,159.720337 312.200165,174.458054 
	C311.960144,176.019318 311.439636,177.537460 310.384766,178.856964 
	C309.228485,176.718033 309.085693,174.611313 308.178558,172.912872 
	C305.594421,168.074829 302.698914,163.403091 299.925934,158.665909 
	C298.086334,155.638123 296.324341,152.559830 294.393005,149.591721 
	C287.780273,139.429291 278.024231,134.054474 266.220337,131.180695 
	C267.057159,122.013359 267.952545,113.080612 269.420502,104.242966 
	C269.729889,102.380264 271.837433,100.384163 273.626617,99.265640 
	C293.272064,86.984306 329.235352,92.422386 337.071991,124.565239 
	C339.633606,135.072037 339.918640,145.639404 338.042236,156.694763 
z"/>
<path fill="#BA9CDD" opacity="1.000000" stroke="none" 
	d="
M376.233002,184.572235 
	C371.451996,180.432114 367.050507,175.501038 361.939545,171.469421 
	C356.803711,167.418182 350.961334,164.262650 345.227539,160.449768 
	C345.358307,157.729980 346.473511,156.765640 349.084320,157.567749 
	C362.752045,161.766693 372.723572,169.684662 376.233002,184.572235 
z"/>
<path fill="#1A1421" opacity="1.000000" stroke="none" 
	d="
M386.458832,276.937714 
	C386.065674,272.989380 386.002350,268.957764 386.027679,264.470032 
	C387.877594,264.581238 389.638885,265.148499 391.695709,265.909485 
	C390.257080,269.686920 388.522888,273.270660 386.458832,276.937714 
z"/>
<path fill="#BD9CE2" opacity="1.000000" stroke="none" 
	d="
M386.683044,260.076660 
	C386.336578,256.472321 384.138031,254.139191 380.776855,252.472595 
	C376.181061,250.193863 371.684845,247.714249 367.005493,244.645813 
	C368.589661,241.027435 370.314240,238.083954 372.362885,235.114716 
	C373.120239,235.088333 373.553558,235.087708 374.144653,235.384369 
	C378.476868,237.863052 382.651367,240.044418 386.825836,242.225769 
	C386.825836,242.225769 386.994049,242.587021 387.110962,243.029419 
	C387.486908,243.980438 387.745972,244.489044 388.005066,244.997650 
	C387.645996,249.919601 387.286957,254.841537 386.683044,260.076660 
z"/>
<path fill="#4D3E5F" opacity="1.000000" stroke="none" 
	d="
M388.211365,244.882355 
	C387.745972,244.489044 387.486908,243.980438 387.241455,243.179993 
	C387.734314,243.111984 388.213531,243.335831 388.839355,243.790955 
	C388.859436,244.318497 388.670013,244.566772 388.211365,244.882355 
z"/>
<path fill="#4D3E5F" opacity="1.000000" stroke="none" 
	d="
M386.817078,241.856018 
	C382.651367,240.044418 378.476868,237.863052 374.169098,235.019226 
	C374.711121,232.539124 375.386444,230.721451 376.061768,228.903793 
	C379.235352,230.107635 382.408936,231.311493 385.818787,232.271301 
	C382.690582,235.468185 386.179565,238.363327 386.817078,241.856018 
z"/>
<path fill="#4C405A" opacity="1.000000" stroke="none" 
	d="
M212.997452,144.366455 
	C214.626938,144.961121 216.998535,145.584625 217.675964,147.012115 
	C220.002197,151.913971 222.865082,156.975357 223.429657,162.202087 
	C224.278473,170.060349 223.653580,178.130066 223.099716,186.071121 
	C222.651932,192.491531 219.431854,197.746780 214.072281,202.013077 
	C210.132690,199.935669 206.425644,197.584076 202.776291,195.269089 
	C215.922073,184.214066 220.505997,161.831131 212.997452,144.366455 
z"/>
<path fill="#4F435C" opacity="1.000000" stroke="none" 
	d="
M180.409134,243.229034 
	C177.894531,243.779892 175.379929,244.330765 172.158234,245.036530 
	C172.158234,234.430710 172.126694,224.667892 172.216751,214.906174 
	C172.224121,214.105743 172.858475,212.976868 173.541092,212.569122 
	C179.646393,208.922150 187.250168,212.040176 188.986862,219.327362 
	C187.798569,219.747665 186.962555,219.885971 186.142685,219.820847 
	C181.359589,219.440933 179.798187,221.610855 180.156586,226.309479 
	C180.584793,231.923096 180.354309,237.586945 180.409134,243.229034 
z"/>
<path fill="#4F435C" opacity="1.000000" stroke="none" 
	d="
M180.183777,186.194183 
	C177.851181,186.834732 175.518585,187.475281 172.151184,188.399994 
	C172.151184,183.497971 172.151505,179.323868 172.151093,175.149750 
	C172.150681,171.026382 172.399521,166.883377 172.077469,162.785263 
	C171.763153,158.785568 173.194992,156.868149 177.650543,157.444946 
	C178.720047,160.666092 179.361282,163.417633 180.005249,166.608337 
	C180.034103,169.107468 180.060257,171.167404 180.112000,173.670593 
	C180.152985,178.140625 180.168381,182.167404 180.183777,186.194183 
z"/>
<path fill="#BC9DE0" opacity="1.000000" stroke="none" 
	d="
M180.765671,243.224823 
	C180.354309,237.586945 180.584793,231.923096 180.156586,226.309479 
	C179.798187,221.610855 181.359589,219.440933 186.142685,219.820847 
	C186.962555,219.885971 187.798569,219.747665 189.028381,219.642746 
	C189.264069,224.970230 189.964844,230.591034 188.603775,235.657959 
	C187.804352,238.633987 183.725800,240.729202 180.765671,243.224823 
z"/>
<path fill="#524067" opacity="1.000000" stroke="none" 
	d="
M180.086395,173.227341 
	C180.060257,171.167404 180.034103,169.107468 180.388031,166.543823 
	C183.116928,164.711212 185.465759,163.382294 187.814590,162.053375 
	C187.880905,169.574783 191.221863,177.529709 184.289368,184.117188 
	C182.493057,180.429977 181.289734,176.828659 180.086395,173.227341 
z"/>
<path fill="#211A29" opacity="1.000000" stroke="none" 
	d="
M187.794403,161.684967 
	C185.465759,163.382294 183.116928,164.711212 180.385315,166.104645 
	C179.361282,163.417633 178.720047,160.666092 178.058075,157.517303 
	C182.448990,155.813400 186.087433,156.300827 187.794403,161.684967 
z"/>
<path fill="#9F89BD" opacity="1.000000" stroke="none" 
	d="
M180.112000,173.670593 
	C181.289734,176.828659 182.493057,180.429977 183.996552,184.324753 
	C183.147034,185.130417 181.997360,185.642624 180.515732,186.174530 
	C180.168381,182.167404 180.152985,178.140625 180.112000,173.670593 
z"/>
<path fill="#4D415B" opacity="1.000000" stroke="none" 
	d="
M299.606232,158.886810 
	C302.698914,163.403091 305.594421,168.074829 308.178558,172.912872 
	C309.085693,174.611313 309.228485,176.718033 310.003571,178.946106 
	C310.322937,180.802658 310.359039,182.351440 310.289948,184.744995 
	C310.291809,188.501831 310.398865,191.413864 310.505920,194.325912 
	C310.424194,195.541595 310.342438,196.757278 310.059509,198.683685 
	C308.529724,205.819519 306.172180,211.585892 299.946869,214.876129 
	C296.805481,210.711380 293.664093,206.546646 291.043030,203.071732 
	C299.053711,201.108170 301.657715,192.985397 301.580048,183.946838 
	C301.508850,175.661179 300.103821,167.386978 299.606232,158.886810 
z"/>
<path fill="#4E425C" opacity="1.000000" stroke="none" 
	d="
M265.685608,244.552109 
	C256.827881,243.519745 258.151917,244.513977 258.087555,236.170639 
	C258.025330,228.106232 258.074066,220.040955 258.074066,212.032288 
	C267.575775,211.135086 272.622253,214.292206 274.634216,222.653992 
	C271.706421,222.711517 269.180450,222.397461 265.685608,221.962936 
	C265.685608,230.012543 265.685608,237.282318 265.685608,244.552109 
z"/>
<path fill="#4D4259" opacity="1.000000" stroke="none" 
	d="
M265.740204,187.646866 
	C256.541992,186.439392 258.196259,187.264526 258.090424,179.145981 
	C257.993347,171.698578 258.069794,164.248917 258.069794,156.824417 
	C267.301361,156.289597 272.308807,159.606033 273.851746,167.765717 
	C271.213287,167.931366 268.982361,167.642426 265.740204,167.222504 
	C265.740204,174.300049 265.740204,180.973465 265.740204,187.646866 
z"/>
<path fill="#BE9FE1" opacity="1.000000" stroke="none" 
	d="
M266.076538,244.665527 
	C265.685608,237.282318 265.685608,230.012543 265.685608,221.962936 
	C269.180450,222.397461 271.706421,222.711517 274.650970,223.033173 
	C275.001434,228.499695 275.457489,234.033325 274.693726,239.393143 
	C274.118683,243.428772 270.509583,244.938538 266.076538,244.665527 
z"/>
<path fill="#C09EE6" opacity="1.000000" stroke="none" 
	d="
M299.993195,215.229584 
	C306.172180,211.585892 308.529724,205.819519 310.088562,199.049072 
	C310.887909,200.240723 311.910675,201.766586 311.948639,203.316544 
	C312.126038,210.559418 312.031799,217.808960 311.785736,225.718079 
	C311.377411,226.951035 311.217987,227.522003 310.872162,228.361725 
	C309.796143,227.890121 308.775909,227.259720 308.041962,226.388245 
	C306.038116,224.008850 304.154999,221.527771 302.224060,219.086975 
	C301.495880,217.919006 300.767700,216.751022 299.993195,215.229584 
z"/>
<path fill="#211A29" opacity="1.000000" stroke="none" 
	d="
M301.055298,262.993622 
	C300.272491,262.991791 299.489716,262.989960 298.315582,262.980438 
	C302.178192,255.885651 304.110779,248.176300 304.509155,239.441711 
	C307.467896,237.287735 306.816498,231.884460 311.791534,233.083908 
	C311.832611,238.064987 311.873657,243.046082 311.480103,248.460587 
	C309.797333,250.099930 308.288330,251.133194 307.352936,252.546158 
	C305.110291,255.933716 303.137207,259.499664 301.055298,262.993622 
z"/>
<path fill="#BC9EDF" opacity="1.000000" stroke="none" 
	d="
M266.132874,187.745026 
	C265.740204,180.973465 265.740204,174.300049 265.740204,167.222504 
	C268.982361,167.642426 271.213287,167.931366 273.877747,168.160614 
	C274.313446,172.487503 274.658173,176.908646 274.220581,181.250946 
	C273.789581,185.527695 271.190948,188.097122 266.132874,187.745026 
z"/>
<path fill="#544961" opacity="1.000000" stroke="none" 
	d="
M311.943115,232.684601 
	C306.816498,231.884460 307.467896,237.287735 304.593475,239.009277 
	C303.513702,232.632080 302.761810,226.183853 302.117004,219.411285 
	C304.154999,221.527771 306.038116,224.008850 308.041962,226.388245 
	C308.775909,227.259720 309.796143,227.890121 311.102570,228.364990 
	C311.519379,228.099518 311.975830,228.031631 311.975830,228.031631 
	C312.015442,229.449524 312.055054,230.867401 311.943115,232.684601 
z"/>
<path fill="#493D58" opacity="1.000000" stroke="none" 
	d="
M345.116028,258.968262 
	C344.718842,256.565277 343.991089,254.164169 343.977325,251.758987 
	C343.877991,234.358643 343.810486,216.955948 344.044464,199.558197 
	C344.079224,196.973755 345.750061,194.411316 346.664001,191.838684 
	C349.337402,193.789642 352.284180,195.473969 354.562744,197.810074 
	C355.617767,198.891739 355.370422,201.243668 355.331177,203.462616 
	C354.013428,205.324005 352.287811,206.730209 352.265564,208.162872 
	C352.057922,221.541031 352.142578,234.923721 352.142578,248.516541 
	C353.629883,248.357941 354.721985,248.241486 355.814087,248.125031 
	C355.758362,251.324005 355.702667,254.522964 355.318878,258.306793 
	C354.192535,259.776398 353.394257,260.661163 352.456665,261.088043 
	C352.137177,257.937866 351.957062,255.245529 351.776917,252.553207 
	C351.372986,252.369904 350.969025,252.186600 350.565094,252.003296 
	C348.748718,254.324951 346.932373,256.646606 345.116028,258.968262 
z"/>
<path fill="#B89ADB" opacity="1.000000" stroke="none" 
	d="
M355.925629,247.703644 
	C354.721985,248.241486 353.629883,248.357941 352.142578,248.516541 
	C352.142578,234.923721 352.057922,221.541031 352.265564,208.162872 
	C352.287811,206.730209 354.013428,205.324005 355.310120,203.838470 
	C355.733398,205.598602 356.108307,207.480225 355.801605,209.243256 
	C354.651764,215.852844 357.097656,220.115448 363.707825,222.718842 
	C364.389648,226.290161 364.932495,229.152405 365.249756,232.290649 
	C362.967621,235.398315 360.911102,238.230011 358.854553,241.061707 
	C353.893677,241.313721 356.574951,245.026978 355.925629,247.703644 
z"/>
<path fill="#453953" opacity="1.000000" stroke="none" 
	d="
M300.994934,263.347046 
	C303.137207,259.499664 305.110291,255.933716 307.352936,252.546158 
	C308.288330,251.133194 309.797333,250.099930 311.396881,248.916779 
	C311.920624,250.640610 312.092987,252.341675 312.143005,254.832031 
	C312.005005,256.409241 311.989349,257.197144 311.973694,257.985077 
	C310.112854,269.471954 305.507568,278.671814 292.351929,280.989532 
	C294.183563,276.605072 296.394531,272.295715 298.622803,267.995361 
	C299.370697,266.551941 300.162750,265.131439 300.994934,263.347046 
z"/>
<path fill="#4D3E5F" opacity="1.000000" stroke="none" 
	d="
M359.029999,241.363464 
	C360.911102,238.230011 362.967621,235.398315 365.443909,232.289352 
	C365.863678,232.012070 366.248505,232.005707 366.248505,232.005707 
	C366.248505,232.005707 366.632599,232.029800 366.960693,232.167084 
	C368.872131,233.249725 370.455505,234.195099 372.038849,235.140472 
	C370.314240,238.083954 368.589661,241.027435 366.851624,244.311249 
	C364.293945,243.656113 361.749695,242.660675 359.029999,241.363464 
z"/>
<path fill="#211A29" opacity="1.000000" stroke="none" 
	d="
M372.362885,235.114716 
	C370.455505,234.195099 368.872131,233.249725 367.019836,231.751465 
	C367.691132,229.248184 368.631409,227.297806 369.571686,225.347412 
	C371.596130,226.355728 373.620544,227.364044 375.853394,228.638077 
	C375.386444,230.721451 374.711121,232.539124 374.011353,234.721924 
	C373.553558,235.087708 373.120239,235.088333 372.362885,235.114716 
z"/>
<path fill="#211A29" opacity="1.000000" stroke="none" 
	d="
M345.141479,259.311646 
	C346.932373,256.646606 348.748718,254.324951 350.565094,252.003296 
	C350.969025,252.186600 351.372986,252.369904 351.776917,252.553207 
	C351.957062,255.245529 352.137177,257.937866 352.353577,261.364746 
	C351.937469,262.692078 351.485138,263.284851 351.032776,263.877625 
	C349.077515,262.470093 347.122223,261.062561 345.141479,259.311646 
z"/>
<path fill="#544961" opacity="1.000000" stroke="none" 
	d="
M369.329346,225.105820 
	C368.631409,227.297806 367.691132,229.248184 366.691711,231.614197 
	C366.632599,232.029800 366.248505,232.005707 366.248505,232.005707 
	C366.248505,232.005707 365.863678,232.012070 365.669495,232.013367 
	C364.932495,229.152405 364.389648,226.290161 363.919922,222.961761 
	C365.691071,223.285156 367.389038,224.074692 369.329346,225.105820 
z"/>
<path fill="#C09EE6" opacity="1.000000" stroke="none" 
	d="
M310.866333,194.176208 
	C310.398865,191.413864 310.291809,188.501831 310.365540,185.129639 
	C310.773163,187.788498 310.999939,190.907486 310.866333,194.176208 
z"/>
<path fill="#B89ADB" opacity="1.000000" stroke="none" 
	d="
M351.401398,263.963501 
	C351.485138,263.284851 351.937469,262.692078 352.492920,261.822601 
	C353.394257,260.661163 354.192535,259.776398 355.242554,258.727753 
	C355.725037,261.391846 355.163422,263.681915 351.401398,263.963501 
z"/>
<path fill="#BCAAD1" opacity="1.000000" stroke="none" 
	d="
M312.187439,227.893112 
	C311.975830,228.031631 311.519379,228.099518 311.288971,228.096252 
	C311.217987,227.522003 311.377411,226.951035 311.770233,226.186035 
	C312.135437,226.579544 312.267242,227.167068 312.187439,227.893112 
z"/>
<path fill="#BCAAD1" opacity="1.000000" stroke="none" 
	d="
M312.241058,257.987610 
	C311.989349,257.197144 312.005005,256.409241 312.186646,255.259735 
	C312.594116,255.706833 312.835602,256.515533 313.060089,257.654816 
	C312.864868,257.987000 312.686646,257.988586 312.241058,257.987610 
z"/>
</svg>